<?xml version="1.0" standalone="no"?>
<!DOCTYPE svg PUBLIC "-//W3C//DTD SVG 1.1//EN" "http://www.w3.org/Graphics/SVG/1.1/DTD/svg11.dtd" >
<svg xmlns="http://www.w3.org/2000/svg">
<metadata></metadata>
<defs>
<font id="calluna_sans_lightregular" horiz-adv-x="1073" >
<font-face units-per-em="2048" ascent="1536" descent="-512" />
<missing-glyph horiz-adv-x="491" />
<glyph unicode="&#xfb01;" horiz-adv-x="1048" d="M61 809v63l146 58v84q0 222 101 346.5t276 124.5q72 0 140.5 -19t101.5 -38l32 -19l-67 -109q-11 7 -31 18t-76 29.5t-104 18.5q-105 0 -176.5 -85.5t-71.5 -260.5v-102h551v-918h-125v819h-426v-819h-125v809h-146z" />
<glyph unicode="&#xfb02;" horiz-adv-x="1077" d="M61 809v63l146 58v84q0 222 101 346.5t276 124.5q121 0 217 -47l110 22v-1460h-125v1303q-113 63 -206 63q-105 0 -176.5 -85.5t-71.5 -260.5v-102h264v-109h-264v-809h-125v809h-146z" />
<glyph unicode="&#xfb03;" horiz-adv-x="1628" d="M61 809v63l146 58v53q0 214 105.5 332.5t289.5 118.5q140 0 270 -80q98 131 273 131q65 0 127 -19t92 -38l29 -19l-68 -109q-10 7 -28 18t-67 29.5t-91 18.5q-96 0 -161 -79t-65 -247v-122h551v-918h-127v819h-424v-819h-127v819h-454v-819h-125v809h-146zM332 918h454 v116q0 118 31 209q-126 72 -221 72q-114 0 -189 -79.5t-75 -248.5v-69z" />
<glyph unicode="&#xfb04;" horiz-adv-x="1656" d="M61 809v63l146 58v53q0 214 105.5 332.5t289.5 118.5q85 0 158.5 -27.5t120.5 -58.5q106 137 290 137q108 0 218 -45l104 20v-1460h-127v1309q-110 57 -201 57q-108 0 -180 -87.5t-72 -266.5v-94h265v-109h-265v-809h-127v819h-454v-819h-125v809h-146zM332 918h454v90 q0 133 37 231q-128 76 -227 76q-114 0 -189 -79.5t-75 -248.5v-69z" />
<glyph horiz-adv-x="2048" />
<glyph horiz-adv-x="2048" />
<glyph unicode="&#xd;" horiz-adv-x="2048" />
<glyph unicode=" "  horiz-adv-x="491" />
<glyph unicode="&#x09;" horiz-adv-x="491" />
<glyph unicode="&#xa0;" horiz-adv-x="491" />
<glyph unicode="!" horiz-adv-x="544" d="M164 86q0 46 32 78.5t78 32.5t78.5 -32.5t32.5 -78.5t-32.5 -78.5t-78.5 -32.5t-78 32.5t-32 78.5zM195 1391h153l-20 -1010h-119z" />
<glyph unicode="&#x22;" horiz-adv-x="684" d="M137 903v463h127v-76l-39 -387h-88zM438 903v463h127v-76l-39 -387h-88z" />
<glyph unicode="#" horiz-adv-x="1298" d="M76 266l18 101h238l59 295h-239l20 102h242l86 420h108l-86 -420h318l86 420h108l-86 -420h273l-21 -102h-272l-62 -295h277l-19 -101h-278l-90 -448h-111l92 448h-317l-90 -448h-111l92 448h-235zM440 367h318l59 295h-315z" />
<glyph unicode="$" horiz-adv-x="935" d="M84 86l33 123q5 -4 14 -10.5t40.5 -24t65 -31t85 -26t104.5 -15.5l10 422q-38 14 -61 23t-62 27t-63 34.5t-54 42.5t-46.5 54t-28.5 66t-12 81q0 122 86.5 200.5t257.5 88.5l6 178h88l-6 -178q76 -3 145.5 -18t101.5 -29l31 -13l-39 -112q-104 49 -241 59l-11 -397 q316 -118 316 -346q0 -124 -89.5 -202.5t-244.5 -90.5l-4 -174h-88l4 170q-96 3 -180.5 27.5t-121.5 47.5zM248 860q0 -77 47 -119t145 -79l11 366q-100 -6 -151.5 -49t-51.5 -119zM514 106q90 11 141.5 56.5t51.5 122.5q0 76 -47 121t-136 83z" />
<glyph unicode="%" horiz-adv-x="1472" d="M84 1036q0 126 86.5 214.5t212.5 88.5q127 0 214 -88t87 -215q0 -126 -87 -213.5t-214 -87.5q-126 0 -212.5 87.5t-86.5 213.5zM180 1036q0 -84 59 -147.5t144 -63.5t144 63.5t59 147.5t-59.5 147.5t-145.5 63.5q-83 0 -142 -64t-59 -147zM209 0l950 1370l80 -57 l-915 -1313h-115zM797 276q0 127 87 215.5t214 88.5q126 0 212.5 -89t86.5 -215q0 -125 -87 -213t-212 -88q-127 0 -214 88t-87 213zM895 276q0 -83 59 -146.5t144 -63.5q84 0 142 63t58 147t-58.5 147.5t-145.5 63.5q-82 0 -140.5 -64t-58.5 -147z" />
<glyph unicode="&#x26;" horiz-adv-x="1378" d="M94 313q0 54 17.5 105.5t44 91t69.5 82t81.5 72t92.5 67.5q-120 210 -120 356q0 51 17.5 101.5t53 97.5t98.5 76t144 29q131 0 204.5 -72.5t73.5 -185.5q0 -67 -24 -127.5t-72 -113.5t-93.5 -91t-115.5 -88q67 -110 164 -232q71 -91 164 -184q86 115 138.5 276t66.5 345 h123q-7 -96 -32.5 -208.5t-82 -249t-133.5 -237.5q198 -176 354 -207l-57 -102q-184 35 -383 213q-165 -152 -379 -152q-112 0 -204.5 38.5t-151 116.5t-58.5 183zM223 326q0 -76 46 -131t112.5 -79t142.5 -24q154 0 281 111q-104 108 -174 196q-93 112 -174 236 q-74 -54 -119.5 -94.5t-80 -98t-34.5 -116.5zM422 1092q0 -114 88 -283q54 38 88.5 67t69.5 67t52 78.5t17 84.5q0 69 -40 118.5t-113 49.5q-76 0 -119 -53.5t-43 -128.5z" />
<glyph unicode="'" horiz-adv-x="380" d="M137 903v463h121v-76l-25 -387h-96z" />
<glyph unicode="(" horiz-adv-x="573" d="M115 553q0 112 16.5 219.5t43 190t58 156.5t63.5 125.5t58.5 90t43.5 56.5l16 18l108 -31q-6 -7 -16.5 -20t-40.5 -56.5t-57 -91.5t-60.5 -123t-57.5 -152.5t-40.5 -178.5t-16.5 -203q0 -111 16.5 -219.5t42.5 -193.5t57 -161.5t62.5 -130.5t57.5 -94.5t43 -59.5l16 -20 l-104 -34q-6 7 -17.5 20t-43.5 59t-61 97.5t-65 133.5t-61.5 168.5t-43 201.5t-17.5 233z" />
<glyph unicode=")" horiz-adv-x="573" d="M45 -326q12 14 32 39.5t70.5 112.5t89.5 182.5t71 243.5t32 301q0 102 -16 202t-41.5 179.5t-56 152t-61.5 124t-56.5 90.5t-41.5 58l-16 19l109 31q6 -6 17 -18.5t42 -55.5t59 -91t62.5 -124.5t59.5 -157.5t42 -189t17 -220q0 -118 -17 -232.5t-44.5 -202.5t-60 -167 t-65.5 -134.5t-60.5 -96.5t-44.5 -60l-17 -20z" />
<glyph unicode="*" horiz-adv-x="978" d="M98 854l285 115l29 -47l-244 -191zM98 1143l70 123l244 -191l-29 -47zM420 588l43 303h53l43 -303h-139zM420 1409h139l-43 -303h-53zM567 922l27 47l287 -115l-70 -123zM567 1075l244 191l70 -123l-287 -115z" />
<glyph unicode="+" horiz-adv-x="1064" d="M68 449v120h403v424h131v-424h397v-120h-397v-449h-131v449h-403z" />
<glyph unicode="," horiz-adv-x="456" d="M82 -274q34 30 45 39.5t32 32.5t27 38t12.5 39t6.5 53q0 110 -88 230l145 49q72 -81 72 -209q0 -205 -187 -338z" />
<glyph unicode="-" horiz-adv-x="669" d="M117 438v142h434v-142h-434z" />
<glyph unicode="." horiz-adv-x="477" d="M127 86q0 46 33.5 78.5t79.5 32.5q44 0 76 -32.5t32 -78.5t-32 -78.5t-76 -32.5q-46 0 -79.5 32.5t-33.5 78.5z" />
<glyph unicode="/" horiz-adv-x="931" d="M49 -401l682 1767h131l-680 -1767h-133z" />
<glyph unicode="0" horiz-adv-x="1116" d="M109 473q0 98 28.5 187.5t83 162.5t143.5 116.5t201 43.5q107 0 193 -40t139.5 -108t82 -154.5t28.5 -182.5q0 -98 -27.5 -188.5t-80.5 -167t-142.5 -122t-202.5 -45.5q-108 0 -195 42t-140.5 112.5t-82 158.5t-28.5 185zM240 483q0 -75 19.5 -143.5t57.5 -124.5 t101.5 -89.5t144.5 -33.5q102 0 175 58.5t106 145.5t33 189q0 74 -20.5 141.5t-58.5 121.5t-99 86t-136 32q-99 0 -174.5 -56t-112 -142t-36.5 -185z" />
<glyph unicode="1" horiz-adv-x="694" d="M106 0v115h203v745h-186v98h313v-843h193v-115h-523z" />
<glyph unicode="2" horiz-adv-x="894" d="M94 90q20 14 54 39.5t120 100.5t152 145.5t120 161.5t54 163q0 74 -50.5 122t-131.5 48q-58 0 -120.5 -25t-95.5 -50l-34 -25l-60 84q6 5 17 14t47 31t72.5 39t90 31t103.5 14q130 0 212.5 -75.5t82.5 -196.5q0 -63 -30 -133t-70.5 -126.5t-107 -125t-113 -110 t-115.5 -99.5h522v-117h-696z" />
<glyph unicode="3" horiz-adv-x="804" d="M45 856q6 5 17 13.5t47 30.5t72.5 39t90 30.5t103.5 13.5q129 0 213 -73.5t84 -192.5q0 -72 -41 -142t-95 -116.5t-120 -83.5q139 -26 215 -110t76 -212q0 -193 -160 -316.5t-416 -123.5q-37 0 -55 2l-13 104q20 -2 60 -2q123 0 224 36.5t163.5 110.5t62.5 173 q0 68 -27 117.5t-74 76.5t-101.5 39.5t-118.5 12.5h-64v110q77 9 158 56.5t136 119.5t55 142q0 72 -47 115.5t-125 43.5q-62 0 -125 -24t-95 -48l-32 -24z" />
<glyph unicode="4" horiz-adv-x="1050" d="M59 63v87l631 839h88v-815h199v-111h-199v-458h-127v458h-592zM207 174h444v578z" />
<glyph unicode="5" horiz-adv-x="808" d="M63 -283q18 -2 60 -2q120 0 221.5 36.5t167.5 114t66 183.5q0 65 -19.5 118.5t-56.5 90t-80.5 63.5t-101 45t-107.5 28t-111 18v546h562v-114h-439v-334q80 -15 148 -38t131.5 -61t108.5 -87t71.5 -118t26.5 -151q0 -133 -76 -234.5t-207 -154.5t-297 -53q-39 0 -57 2z " />
<glyph unicode="6" horiz-adv-x="1030" d="M106 567q0 124 27 240t84 220t139 182.5t200 127t259 54.5l10 -107q-236 -13 -381.5 -157.5t-187.5 -366.5q37 47 106.5 79.5t167.5 32.5q131 0 226.5 -61t140.5 -157.5t45 -213.5q0 -88 -27 -170.5t-76.5 -148.5t-128.5 -106t-175 -40q-85 0 -156 31.5t-121 86.5 t-84.5 130.5t-51 162t-16.5 181.5zM242 586q0 -98 18 -185t53 -157t93 -111t131 -41q122 0 196 96t74 236q0 44 -7 86.5t-27 88.5t-50.5 80t-81.5 56.5t-117 22.5q-161 0 -282 -121v-51z" />
<glyph unicode="7" horiz-adv-x="919" d="M68 831v127h792v-94q-217 -539 -586 -1263l-122 32q291 525 563 1198h-647z" />
<glyph unicode="8" horiz-adv-x="1040" d="M104 317q0 53 19 103.5t46 89t73.5 82t84.5 72.5t95 69q-106 83 -166.5 170t-60.5 193q0 137 102 216t250 79t237.5 -82t89.5 -207q0 -105 -66.5 -189.5t-184.5 -169.5q59 -44 93.5 -71t82.5 -72t73.5 -82.5t44.5 -87.5t19 -102q0 -148 -121.5 -250.5t-300.5 -102.5 q-96 0 -175 29t-129.5 77t-78 109t-27.5 127zM233 328q0 -110 84.5 -172t204.5 -62q113 0 195 61.5t82 166.5q0 46 -20.5 89.5t-61 85t-80.5 74t-100 77.5q-17 12 -25 18q-64 -44 -107 -77.5t-86 -77t-64.5 -89t-21.5 -94.5zM332 1098q0 -78 52.5 -145.5t150.5 -141.5 q103 75 158 140.5t55 142.5q0 61 -35 103.5t-80 58.5t-94 16q-48 0 -92.5 -15t-79.5 -56.5t-35 -102.5z" />
<glyph unicode="9" horiz-adv-x="1024" d="M106 539q0 116 43.5 215t135 164t215.5 65q106 0 190 -48.5t135.5 -131t78 -185.5t26.5 -219q0 -121 -28 -234t-86.5 -212.5t-141.5 -174.5t-199.5 -120.5t-253.5 -50.5l-10 106q128 9 229 51t169 109.5t110 151t61 184.5q-38 -47 -109 -80t-165 -33q-96 0 -173.5 37 t-126 99.5t-74.5 141t-26 165.5zM244 553q0 -43 6.5 -85.5t25 -90.5t47.5 -83.5t79.5 -59t115.5 -23.5q156 0 275 119q2 14 2 45q0 133 -32 242t-102.5 179t-168.5 70q-114 0 -181 -87t-67 -226z" />
<glyph unicode=":" horiz-adv-x="550" d="M166 86q0 46 32 78.5t78 32.5q45 0 78 -33t33 -78t-33 -78t-78 -33q-46 0 -78 32.5t-32 78.5zM166 799q0 46 32 78t78 32q45 0 78 -32.5t33 -77.5t-33 -78t-78 -33q-46 0 -78 32.5t-32 78.5z" />
<glyph unicode=";" horiz-adv-x="540" d="M129 -274q34 30 45 39.5t32 32.5t27 38t12.5 39t6.5 53q0 110 -88 230l145 49q72 -81 72 -209q0 -206 -186 -338zM158 799q0 46 33 78t79 32q44 0 76.5 -32.5t32.5 -77.5q0 -46 -32.5 -78.5t-76.5 -32.5q-46 0 -79 32.5t-33 78.5z" />
<glyph unicode="&#x3c;" horiz-adv-x="1064" d="M68 459v94l872 469l27 -129l-736 -387l736 -408l-27 -127z" />
<glyph unicode="=" horiz-adv-x="1064" d="M70 252v123h925v-123h-925zM70 651v123h925v-123h-925z" />
<glyph unicode="&#x3e;" horiz-adv-x="1064" d="M96 98l731 408l-731 387l27 129l872 -469v-94l-872 -488z" />
<glyph unicode="?" horiz-adv-x="710" d="M96 1303l29 122q11 -3 29 -9t71 -26.5t101.5 -42.5t107 -57t101 -71t71.5 -83t29 -94q0 -51 -34 -104t-82 -105.5t-96 -113t-82 -148.5t-34 -190h-102q-6 29 -6 76q0 79 29 155t70 133t82 107t70 96t29 82q0 41 -39.5 84.5t-96 75.5t-112.5 58.5t-95 40.5zM154 86 q0 46 32 78.5t78 32.5t78.5 -32.5t32.5 -78.5t-32.5 -78.5t-78.5 -32.5t-78 32.5t-32 78.5z" />
<glyph unicode="@" horiz-adv-x="1673" d="M90 401q0 158 58 305t159.5 259.5t251.5 180.5t322 68q151 0 279.5 -51.5t217.5 -140.5t139 -212t50 -263q0 -129 -42.5 -247t-135.5 -191q-41 -33 -99.5 -57t-108 -37t-141.5 -33q-21 -5 -32 -7q-17 80 -25 148q-39 -64 -110 -106t-148 -42q-123 0 -204 107t-81 285 q0 127 45.5 234.5t122.5 178t176 109.5t207 39l119 -6v-654q0 -47 3.5 -88t6.5 -58l4 -18q163 21 242.5 131.5t79.5 286.5q0 168 -66 301t-195 211t-302 78q-148 0 -276 -59t-214 -158t-135 -230t-49 -274q0 -138 44.5 -258t119.5 -203t173.5 -133t205.5 -55l-17 -94 q-181 7 -330 113t-232 276t-83 364zM580 381q0 -122 50.5 -203.5t131.5 -81.5q38 0 76 19t67.5 49.5t45.5 50.5t28 39v561q-174 0 -286.5 -125.5t-112.5 -308.5z" />
<glyph unicode="A" horiz-adv-x="1255" d="M35 0l528 1376h129l529 -1376h-144l-170 449h-565l-170 -449h-137zM385 563h479l-239 631z" />
<glyph unicode="B" horiz-adv-x="1189" d="M211 0v1366h321q102 0 183 -19t132.5 -50.5t85.5 -75t48 -88.5t14 -95q0 -177 -166 -307q29 -10 55.5 -22t64.5 -40t65 -62t47 -89t20 -121q0 -180 -130 -288.5t-337 -108.5h-403zM346 113h238q176 0 263 70.5t87 195.5t-87 197.5t-263 72.5h-238v-536zM346 764h332 q7 4 18.5 11t41 32t52.5 54t41.5 76t18.5 99q0 48 -16.5 85.5t-55 68t-108 47t-168.5 16.5h-156v-489z" />
<glyph unicode="C" horiz-adv-x="1376" d="M111 678q0 147 51.5 277t143.5 227t229 153t299 56q73 0 145.5 -12.5t124 -29.5t92.5 -34.5t62 -30.5l20 -12l-55 -125q-7 5 -19.5 14t-54.5 31t-86 39t-111 31t-133 14q-111 0 -204.5 -34.5t-158 -92.5t-110 -134t-67 -159.5t-21.5 -169.5q0 -118 41.5 -226t114.5 -190 t180.5 -131t232.5 -49q64 0 130 14.5t114 35t87 41.5t59 35l20 15l55 -102q-8 -6 -23 -16.5t-64.5 -37t-102 -47t-131.5 -37t-158 -16.5q-203 0 -363.5 92t-249.5 252t-89 359z" />
<glyph unicode="D" horiz-adv-x="1476" d="M211 0v1366h389q116 0 223 -21.5t206.5 -72t172 -125t116.5 -188t44 -254.5q0 -225 -107 -385.5t-295 -240t-438 -79.5h-311zM346 113h156q191 0 332.5 44t223.5 123.5t120.5 180t38.5 223.5q0 265 -168.5 417t-477.5 152h-225v-1140z" />
<glyph unicode="E" horiz-adv-x="1103" d="M211 0v1366h784v-113h-649v-497h514v-113h-514v-530h641v-113h-776z" />
<glyph unicode="F" horiz-adv-x="1036" d="M211 0v1366h762v-113h-627v-503h496v-123h-496v-627h-135z" />
<glyph unicode="G" horiz-adv-x="1423" d="M111 666q0 144 48.5 274t138 231t228.5 160.5t308 59.5q75 0 149 -10.5t126 -25.5t93 -30.5t62 -26.5l20 -10l-55 -127q-7 5 -19.5 12.5t-54.5 27.5t-86.5 35t-111.5 27.5t-134 12.5q-138 0 -248.5 -51t-178.5 -136.5t-104 -190.5t-36 -220q0 -123 41.5 -230t118 -187 t193.5 -125.5t259 -45.5q62 0 130.5 10t106.5 20l38 11v440h-299v113h434v-645q-27 -7 -71.5 -17.5t-160.5 -28.5t-204 -18q-150 0 -282.5 48t-232.5 135t-158 218.5t-58 289.5z" />
<glyph unicode="H" horiz-adv-x="1538" d="M211 0v1366h135v-612h846v612h135v-1366h-135v641h-846v-641h-135z" />
<glyph unicode="I" horiz-adv-x="557" d="M211 0v1366h135v-1366h-135z" />
<glyph unicode="J" horiz-adv-x="559" d="M-16 -252q48 6 86.5 27.5t62.5 54t40.5 69t25 79.5t11.5 78t3 71v1239h135v-1239q0 -82 -16.5 -159t-50.5 -147t-95.5 -118t-142.5 -61z" />
<glyph unicode="K" horiz-adv-x="1155" d="M211 0v1366h135v-594h25l577 594h172l-633 -641l658 -725h-182l-592 659h-25v-659h-135z" />
<glyph unicode="L" horiz-adv-x="1044" d="M211 0v1366h135v-1253h668v-113h-803z" />
<glyph unicode="M" horiz-adv-x="1755" d="M190 0l48 1366h192l442 -1192l449 1192h195l49 -1366h-131l-43 1196l-461 -1196h-111l-461 1210l-36 -1210h-132z" />
<glyph unicode="N" horiz-adv-x="1529" d="M211 0v1366h133l844 -1167v1167h131v-1366h-133l-844 1149v-1149h-131z" />
<glyph unicode="O" horiz-adv-x="1624" d="M111 680q0 110 30.5 214t91 194t144.5 157.5t199 106.5t247 39q152 0 282 -53t219 -145t139 -217t50 -267q0 -144 -52.5 -277.5t-143.5 -234.5t-225 -161.5t-287 -60.5q-200 0 -360 97t-247 257.5t-87 350.5zM256 694q0 -87 23.5 -173t70.5 -163t112 -136.5t155.5 -94.5 t193.5 -35q127 0 234 52.5t175.5 138t107 192t38.5 217.5q0 112 -37.5 215.5t-106.5 185.5t-176 131.5t-235 49.5q-103 0 -193 -33t-155.5 -89.5t-112.5 -130.5t-70.5 -157.5t-23.5 -169.5z" />
<glyph unicode="P" horiz-adv-x="1138" d="M211 0v1366h367q128 0 223 -31t150 -86.5t81.5 -123.5t26.5 -150q0 -201 -131 -314.5t-350 -113.5h-232v-547h-135zM346 659h205q182 0 272 78.5t90 223.5q0 132 -87 212t-275 80h-205v-594z" />
<glyph unicode="Q" horiz-adv-x="1624" d="M115 680q0 110 30 214t90 194t143 157.5t196 106.5t243 39q154 0 285.5 -53t222 -145t141 -217t50.5 -267q0 -165 -66 -313t-189.5 -254t-283.5 -146q31 -40 49.5 -63.5t54.5 -64.5t64.5 -66t71.5 -57t83.5 -50t92.5 -31t106 -14l-18 -125h-18q-56 0 -108 10 q-61 12 -111.5 37.5t-92 52t-80 64.5t-62.5 63.5t-53 61t-38 45.5l-62 71q-35 43 -119 47q-184 16 -327 116t-219 254t-76 333zM260 694q0 -87 22.5 -172.5t69 -162.5t110.5 -136t154.5 -94t194.5 -35q126 0 233.5 52.5t177.5 138t109 192t39 217.5q0 108 -37.5 211 t-106 185.5t-175.5 133t-236 50.5q-127 0 -234.5 -50.5t-176 -133t-106.5 -185.5t-38 -211z" />
<glyph unicode="R" horiz-adv-x="1189" d="M211 0v1366h326q102 0 184.5 -20t137 -54t91 -81t52.5 -98t16 -107q0 -74 -27.5 -139t-73.5 -111.5t-95 -79t-103 -55.5l424 -621h-160l-410 596h-227v-596h-135zM346 711h238q44 0 92.5 18t92.5 51t72.5 88t28.5 121q0 112 -87.5 188t-272.5 76h-164v-542z" />
<glyph unicode="S" horiz-adv-x="1038" d="M104 90l35 131q7 -5 19 -13.5t50.5 -29.5t79 -37.5t99.5 -30t115 -14.5q126 0 209.5 57t83.5 160q0 54 -22.5 99.5t-61 80.5t-88.5 66t-105 60t-110 59t-105 67t-88.5 78.5t-61 99t-22.5 124.5q0 151 115.5 247.5t318.5 96.5q79 0 164 -15.5t131 -31.5l45 -15l-43 -129 q-16 8 -45 19.5t-109.5 31t-150.5 19.5q-129 0 -210 -54t-81 -153q0 -61 28.5 -112.5t75 -87t106.5 -71t122 -65t122 -69.5t106.5 -83.5t75 -108t28.5 -142.5q0 -113 -60 -193t-157 -118t-221 -38q-65 0 -129 12t-109 28.5t-80 33.5t-52 29z" />
<glyph unicode="T" horiz-adv-x="1206" d="M35 1253v113h1136v-113h-507v-1253h-134v1253h-495z" />
<glyph unicode="U" horiz-adv-x="1476" d="M193 485v881h133v-846q0 -215 113.5 -321.5t299.5 -106.5q89 0 162.5 24.5t130 73.5t88 130t31.5 186v860h133v-852q0 -129 -42 -232.5t-116.5 -170t-173.5 -101.5t-215 -35q-117 0 -213 28.5t-171.5 87.5t-117.5 159.5t-42 234.5z" />
<glyph unicode="V" horiz-adv-x="1193" d="M35 1366h141l422 -1182l424 1182h137l-497 -1376h-132z" />
<glyph unicode="W" horiz-adv-x="1916" d="M55 1366h138l354 -1180l336 1180h157l332 -1176l359 1176h133l-422 -1376h-137l-344 1173l-347 -1173h-137z" />
<glyph unicode="X" horiz-adv-x="1191" d="M57 0l461 680l-461 686h160l381 -580l381 580h154l-459 -682l459 -684h-158l-381 580l-383 -580h-154z" />
<glyph unicode="Y" horiz-adv-x="1153" d="M23 1366h159l398 -635l401 635h149l-485 -762v-604h-135v602z" />
<glyph unicode="Z" horiz-adv-x="1183" d="M74 0v74l831 1179h-778v113h954v-74l-821 -1179h830v-113h-1016z" />
<glyph unicode="[" horiz-adv-x="585" d="M182 -313v1679h361v-100h-246v-1477h246v-102h-361z" />
<glyph unicode="\" horiz-adv-x="927" d="M70 1366h127l682 -1767h-129z" />
<glyph unicode="]" horiz-adv-x="587" d="M43 -205h246v1462h-246v109h363v-1679h-363v108z" />
<glyph unicode="^" horiz-adv-x="1028" d="M33 512l438 879h88l438 -879h-145l-340 682l-340 -682h-139z" />
<glyph unicode="_" horiz-adv-x="1110" d="M43 -76h1024v-114h-1024v114z" />
<glyph unicode="`" horiz-adv-x="1028" d="M338 1425h154l206 -342l-84 -49z" />
<glyph unicode="a" horiz-adv-x="944" d="M80 201q0 137 142 227t415 127v61q0 39 -1.5 61.5t-10 53.5t-24.5 48t-47.5 29.5t-76.5 12.5q-69 0 -141 -24.5t-109 -48.5l-37 -25l-45 111q6 4 17.5 11.5t49 26t77.5 33t101 26t122 11.5q133 0 191.5 -67t58.5 -222v-436q0 -35 10.5 -61t25.5 -38t30 -19t26 -8l10 -1 l-47 -104q-85 14 -124 51.5t-50 101.5q-11 -16 -27.5 -33.5t-56.5 -52t-100 -56.5t-127 -22q-114 0 -183 63t-69 163zM219 209q0 -56 36 -83.5t95 -27.5q45 0 86.5 14.5t80 44.5t62 52.5t58.5 60.5v179q-217 -37 -317.5 -93.5t-100.5 -146.5z" />
<glyph unicode="b" horiz-adv-x="1056" d="M162 16v1420l125 24v-651q36 52 111 92.5t169 40.5q172 0 281.5 -129t109.5 -328q0 -102 -31 -191t-91.5 -160t-160 -113.5t-226.5 -45.5h-14q-108 0 -273 41zM287 115q68 -25 164 -25q169 0 270.5 101t101.5 286q0 159 -74 252.5t-194 93.5q-48 0 -94 -16t-80.5 -41 t-56 -45.5t-37.5 -40.5v-565z" />
<glyph unicode="c" horiz-adv-x="925" d="M98 446q0 95 29.5 183t85 158.5t143 112.5t195.5 42q54 0 104.5 -10.5t83.5 -25.5t58.5 -30t36.5 -26l12 -10l-66 -103q-4 3 -11.5 9t-31.5 21t-50 26t-65.5 20.5t-78.5 9.5q-144 0 -228 -106.5t-84 -255.5q0 -153 86.5 -260t231.5 -107q43 0 84.5 10.5t70.5 25t51 29.5 t33 25l11 11l47 -101q-5 -5 -14 -13t-39.5 -28.5t-64 -36t-87 -28.5t-109.5 -13q-192 0 -313 135.5t-121 335.5z" />
<glyph unicode="d" horiz-adv-x="1085" d="M100 428q0 101 33 192.5t94.5 164t159 115t217.5 42.5q110 0 187 -33v527l124 24v-1175q0 -50 10.5 -121.5t20.5 -117.5l10 -46l-129 -14q-18 87 -28 153q-43 -70 -124 -117t-183 -47q-172 0 -282 130t-110 323zM236 438q0 -158 77 -250t191 -92q48 0 94 17.5t75 38.5 t58 52.5t38.5 45t19.5 30.5q2 2 2 3v397q0 147 -187 147q-164 0 -266 -104.5t-102 -284.5z" />
<glyph unicode="e" horiz-adv-x="993" d="M100 434q0 221 122 364.5t313 143.5q159 0 258.5 -105t99.5 -290l-84 -25l-571 -73q8 -162 91.5 -258.5t227.5 -96.5q45 0 91.5 12t81 29t63 34.5t43.5 29.5l14 12l39 -107q-5 -5 -15 -14t-43.5 -31t-70 -39t-94 -31t-117.5 -14q-109 0 -196.5 38t-141.5 102.5t-82.5 146 t-28.5 172.5zM244 561l510 66q-1 8 -4 21.5t-18 48.5t-37.5 61.5t-66.5 48.5t-100 22q-115 0 -189 -74.5t-95 -193.5z" />
<glyph unicode="f" horiz-adv-x="647" d="M61 809v63l146 58v104q0 215 95.5 333t262.5 118q64 0 126 -19t92 -38l30 -19l-68 -104q-11 7 -29 18t-67.5 29t-91.5 18q-96 0 -160.5 -80.5t-64.5 -249.5v-122h264v-109h-264v-809h-125v809h-146z" />
<glyph unicode="g" horiz-adv-x="1017" d="M63 -236q0 168 246 281q-153 46 -153 127q0 24 11.5 46.5t37.5 45t40 32.5t46 32q-82 43 -128 120.5t-46 172.5q0 98 51.5 172.5t134 111.5t180.5 37q57 0 137.5 -19.5t129.5 -19.5h90q25 0 55.5 5.5t48.5 10.5l17 5l14 -129h-123q-58 0 -72 2q68 -77 68 -195 q0 -76 -34.5 -138.5t-90 -100.5t-121 -58t-131.5 -20q-49 0 -82 8q-65 -47 -78 -65q-12 -16 -12 -29q0 -30 52 -47.5t186 -43.5l30 -6q55 -11 91.5 -20t83 -23.5t76 -32t57 -42t40.5 -57.5t13 -74q0 -93 -68 -171t-179 -122.5t-237 -44.5q-99 0 -183.5 26.5t-141 84.5 t-56.5 138zM184 -221q0 -46 28 -79.5t72 -50.5t88 -24.5t87 -7.5q136 0 235 66.5t99 152.5q0 35 -18 61t-52.5 44t-70.5 29t-87 22q-90 16 -137 26q-58 -30 -91.5 -50t-74 -51t-59.5 -65t-19 -73zM254 612q0 -95 58.5 -159t170.5 -64q101 0 165.5 53.5t64.5 149.5t-62 171 t-174 75q-101 0 -162 -63.5t-61 -162.5z" />
<glyph unicode="h" horiz-adv-x="1075" d="M166 0v1436l125 24v-710q29 28 63 55t86.5 61t116 55t125.5 21q107 0 172.5 -64.5t65.5 -205.5v-672h-125v649q0 97 -39 138.5t-99 41.5q-45 0 -101.5 -24t-110 -61.5t-89.5 -66.5t-65 -56v-621h-125z" />
<glyph unicode="i" horiz-adv-x="454" d="M133 1262q0 40 29 69t69 29q39 0 68 -29t29 -69t-29.5 -70.5t-67.5 -30.5q-39 0 -68.5 30.5t-29.5 70.5zM166 0v918h125v-918h-125z" />
<glyph unicode="j" horiz-adv-x="454" d="M-47 -375q105 23 159 104t54 238v951h125v-912q0 -232 -72 -348t-225 -143zM131 1262q0 40 29 69t69 29q39 0 68 -29t29 -69t-29.5 -70.5t-67.5 -30.5q-39 0 -68.5 30.5t-29.5 70.5z" />
<glyph unicode="k" horiz-adv-x="931" d="M166 0v1436l125 24v-909h18l387 367h172l-442 -408l489 -510h-172l-432 457h-20v-457h-125z" />
<glyph unicode="l" horiz-adv-x="454" d="M166 0v1436l125 24v-1460h-125z" />
<glyph unicode="m" horiz-adv-x="1638" d="M162 0v905l125 25v-187q92 85 156 125q120 74 229 74q80 0 138 -44t77 -136q27 26 58 50t81.5 57t112 53t121.5 20q99 0 161 -65t62 -205v-672h-125v649q0 97 -34.5 138.5t-86.5 41.5q-55 0 -132 -40t-122.5 -75.5t-87.5 -72.5v-641h-125v649q0 97 -35 138.5t-88 41.5 q-46 0 -103.5 -25.5t-110 -65t-86 -68.5t-60.5 -56v-614h-125z" />
<glyph unicode="n" d="M162 0v905l125 25v-187q30 27 45 41t62 49t85 54.5t94 37t109 17.5q105 0 170.5 -65t65.5 -205v-672h-125v649q0 180 -136 180q-47 0 -105.5 -25t-111.5 -63t-89.5 -69t-63.5 -58v-614h-125z" />
<glyph unicode="o" d="M98 463q0 92 29.5 177t83.5 153t138.5 108.5t185.5 40.5q100 0 184 -39.5t139.5 -105.5t86 -151.5t30.5 -178.5q0 -92 -30 -179t-84 -157.5t-139 -113t-187 -42.5q-132 0 -233.5 71.5t-152.5 181.5t-51 235zM231 475q0 -73 19 -140.5t55.5 -122t96.5 -87.5t135 -33 q136 0 220.5 101t84.5 260q0 71 -18 136t-54 118.5t-96.5 85.5t-138.5 32q-138 0 -221 -96.5t-83 -253.5z" />
<glyph unicode="p" horiz-adv-x="1062" d="M162 -473v1378l123 25v-142q36 65 110.5 109.5t177.5 44.5q176 0 283 -131t107 -326q0 -141 -57 -257t-164 -184.5t-244 -68.5q-134 0 -211 64v-488zM287 227q3 -66 57 -101.5t143 -35.5q154 0 247 104t93 281q0 159 -74 250.5t-190 91.5q-44 0 -86.5 -14.5t-72 -33.5 t-56.5 -45t-39.5 -41t-21.5 -28v-428z" />
<glyph unicode="q" horiz-adv-x="1056" d="M98 430q0 100 32 190.5t93.5 163t161.5 115.5t225 43q63 0 134 -10t111 -20l40 -11v-1350l-125 -24v586q-33 -54 -106.5 -96t-171.5 -42q-174 0 -284 128.5t-110 326.5zM233 438q0 -155 75.5 -249.5t195.5 -94.5q50 0 97 17t81 44t53.5 46.5t34.5 38.5v565 q-74 22 -172 22q-162 0 -263.5 -102t-101.5 -287z" />
<glyph unicode="r" horiz-adv-x="661" d="M162 0v905l125 25v-185q118 197 268 197q23 0 43 -4.5t28 -9.5l9 -4l-39 -138q-37 15 -76 15q-119 0 -233 -209v-592h-125z" />
<glyph unicode="s" horiz-adv-x="790" d="M92 57l29 117q5 -4 14 -9.5t37.5 -21t58 -27t72.5 -21t84 -9.5q87 0 134.5 37t47.5 100q0 45 -25.5 80t-65.5 59.5t-89 46.5t-98 47.5t-89 56.5t-65.5 78.5t-25.5 108.5q0 108 79.5 175t237.5 67q67 0 129 -13t91 -25l28 -13l-39 -109q-112 49 -225 49 q-85 0 -128.5 -32.5t-43.5 -87.5q0 -43 25.5 -76.5t65.5 -57t89 -45.5t98 -48t89 -58t65.5 -82t25.5 -113q0 -120 -86.5 -188t-234.5 -68q-50 0 -98 8.5t-80.5 20.5t-57.5 24t-37 20z" />
<glyph unicode="t" horiz-adv-x="714" d="M74 809v68l125 53v200l125 35v-247h305v-109h-305v-541q0 -96 29 -137t89 -41q44 0 94.5 21.5t78.5 42.5l28 22l31 -110q-4 -4 -12.5 -10t-35 -21.5t-54.5 -27.5t-69.5 -22t-82.5 -10q-221 0 -221 263v571h-125z" />
<glyph unicode="u" horiz-adv-x="1054" d="M152 250v668h124v-650q0 -102 40 -141t104 -39q146 0 340 188v642h125v-633q0 -50 10.5 -122t20.5 -119l10 -46l-125 -10q-23 100 -31 166q-26 -26 -56.5 -50.5t-79.5 -57t-111 -52t-124 -19.5q-120 0 -183.5 65.5t-63.5 209.5z" />
<glyph unicode="v" horiz-adv-x="919" d="M45 918h133l258 -764l316 764h133l-396 -930h-122z" />
<glyph unicode="w" horiz-adv-x="1499" d="M49 918h133l234 -773l282 773h119l221 -773l291 773h135l-377 -930h-120l-224 741l-280 -741h-121z" />
<glyph unicode="x" horiz-adv-x="915" d="M66 0l315 459l-315 459h153l240 -361l241 361h150l-315 -455l315 -463h-145l-250 371l-250 -371h-139z" />
<glyph unicode="y" horiz-adv-x="921" d="M41 918h137l289 -672l278 672h138l-422 -988q-30 -71 -53.5 -120t-59 -105.5t-70.5 -92t-83 -63t-103 -34.5l-41 110q94 19 158.5 93t122.5 206l69 158z" />
<glyph unicode="z" horiz-adv-x="876" d="M88 0v76l508 731h-492v111h666v-74l-514 -731h535v-113h-703z" />
<glyph unicode="{" horiz-adv-x="698" d="M37 485v105q65 3 113 27.5t76.5 74.5t46 97t24.5 128t8.5 131.5t1.5 141.5q0 165 112 246.5t298 81.5v-95q-60 -4 -103.5 -13.5t-74.5 -19.5t-50.5 -35t-31 -43t-17 -62t-7 -73.5t-3.5 -95.5q-4 -177 -32 -289t-72.5 -165.5t-116.5 -85.5v-4q51 -23 87.5 -60t67 -100.5 t47 -164t19.5 -239.5q2 -74 4 -109t11.5 -80.5t26.5 -65t49 -41.5t79 -31t117 -15v-94q-126 0 -205 23t-125 77.5t-63 132t-17 199.5q0 101 -11 182t-27.5 133.5t-42 91.5t-47.5 58.5t-52 31.5t-48 15t-42 4z" />
<glyph unicode="|" horiz-adv-x="475" d="M180 -461v1995h115v-1995h-115z" />
<glyph unicode="}" horiz-adv-x="698" d="M-18 -369q60 5 103 14.5t74 19.5t50.5 35t31 42.5t17 61t7 72.5t3.5 95v2q3 139 19.5 239.5t47 164t67 100.5t87.5 60v4q-41 18 -70 40t-58 62.5t-47.5 96t-31 142t-14.5 199.5q-2 75 -4 109.5t-11.5 81t-26.5 65.5t-48.5 41t-78.5 31t-117 14v95q155 0 241.5 -39 t127 -134.5t40.5 -269.5q0 -96 11.5 -173t28.5 -126t44 -85.5t49 -54.5t53 -29t47.5 -13.5t39.5 -3.5v-105q-40 -1 -72 -10.5t-71.5 -41.5t-66 -85t-45 -151t-18.5 -230q0 -121 -16 -196.5t-61 -131t-125 -79t-207 -23.5v94z" />
<glyph unicode="~" horiz-adv-x="1191" d="M137 362q0 310 260 310q65 0 117.5 -20.5t86 -50t63 -59.5t64.5 -50.5t75 -20.5q43 0 72 19t42 51.5t18 61t5 61.5h119q0 -310 -260 -310q-65 0 -117.5 20.5t-86 50t-63 59.5t-64.5 50.5t-75 20.5q-43 0 -72 -19t-42 -51.5t-18 -61t-5 -61.5h-119z" />
<glyph unicode="&#xa1;" horiz-adv-x="503" d="M137 831q0 46 32.5 78.5t78.5 32.5t78 -32.5t32 -78.5t-32 -78t-78 -32t-78.5 32t-32.5 78zM174 -473l21 1010h118l15 -1010h-154z" />
<glyph unicode="&#xa2;" horiz-adv-x="903" d="M90 569q0 103 38.5 192.5t118.5 154t189 81.5l4 181h88l-4 -174q55 -2 104.5 -15.5t80.5 -31.5t54.5 -35.5t33.5 -29.5l10 -13l-80 -97q-3 4 -9 10t-26.5 22t-43 28.5t-57.5 25t-71 15.5l-14 -627h4q68 0 130.5 25t91.5 50l28 25l47 -100q-5 -5 -13.5 -13t-37.5 -28.5 t-61.5 -36t-83 -28.5t-103.5 -13h-4l-4 -182h-86l4 190q-149 30 -238.5 148.5t-89.5 275.5zM229 575q0 -107 50.5 -191t140.5 -114l14 609q-97 -22 -151 -108t-54 -196z" />
<glyph unicode="&#xa3;" horiz-adv-x="1091" d="M84 104q5 2 14 5t31.5 17.5t41 33.5t36 54t22.5 77l25 198h-127v97h139l23 172q11 91 34 160t62.5 123.5t102.5 83t147 28.5q57 0 108.5 -12.5t85 -30.5t58.5 -36.5t36 -31.5l11 -12l-80 -96q-3 4 -9.5 11t-28 24t-46 30t-63.5 24t-80 11q-91 0 -144 -61.5t-69 -220.5 l-19 -166h398l-11 -97h-395q-10 -99 -29 -187.5t-33 -127.5l-14 -39q217 -69 344 -69q55 0 99 16t79 60t44 114l8 66h110q-5 -59 -15.5 -107t-33.5 -99.5t-55.5 -86.5t-86 -57.5t-122.5 -22.5q-79 0 -235.5 39t-200.5 39q-54 0 -121 -27z" />
<glyph unicode="&#xa5;" horiz-adv-x="1130" d="M84 1128h152l329 -512l336 512h139l-313 -479h215v-98h-280l-35 -55v-80h315v-99h-315v-317h-125v317h-295v99h295v78l-39 57h-256v98h192z" />
<glyph unicode="&#xa6;" horiz-adv-x="516" d="M193 350h133v-733h-133v733zM193 668v733h133v-733h-133z" />
<glyph unicode="&#xa7;" horiz-adv-x="999" d="M57 -379l62 94q5 -4 14.5 -10.5t39 -23t59 -29t71.5 -23t80 -10.5q127 0 195.5 94t68.5 240q0 60 -12 125l-115 631q-22 130 -22 204q0 136 53 213l102 -22q-35 -74 -35 -189q0 -46 11 -114l125 -707q12 -70 12 -139q0 -91 -23 -169.5t-68 -139.5t-119 -96t-169 -35 q-53 0 -106 11t-91.5 26.5t-69.5 31t-47 26.5zM205 948q0 91 23 170t68 140.5t119.5 97t170.5 35.5q53 0 106 -11t91 -26.5t68.5 -31.5t46.5 -27l15 -11l-61 -94q-5 4 -14.5 10.5t-38 23t-58 29t-71.5 23t-80 10.5q-129 0 -197.5 -94.5t-68.5 -241.5q0 -62 12 -123l115 -630 q20 -118 20 -205q0 -138 -51 -213l-103 22q35 81 35 189q0 52 -10 114l-125 707q-12 70 -12 137z" />
<glyph unicode="&#xa8;" horiz-adv-x="1028" d="M246 1262q0 37 29.5 65.5t66.5 28.5q34 0 63 -29t29 -65t-29 -65.5t-63 -29.5q-37 0 -66.5 29t-29.5 66zM590 1262q0 36 29 65t65 29q37 0 65.5 -28.5t28.5 -65.5t-28.5 -66t-65.5 -29q-36 0 -65 29.5t-29 65.5z" />
<glyph unicode="&#xa9;" horiz-adv-x="1601" d="M94 682q0 191 95 354t258 258t354 95q143 0 274 -56t225.5 -151t150.5 -226t56 -274t-56 -274t-150.5 -226t-225.5 -151t-274 -56q-191 0 -354 95t-258 258t-95 354zM195 682q0 -168 80 -309.5t219.5 -224t306.5 -82.5t306.5 82.5t219.5 224t80 309.5t-80 309.5 t-219.5 224t-306.5 82.5t-306.5 -82.5t-219.5 -224t-80 -309.5zM406 674q0 82 27 158t77.5 136.5t131.5 97t181 36.5q53 0 103 -12.5t83.5 -31t59 -36.5t37.5 -30l12 -13l-92 -107q-3 4 -9.5 10.5t-27 23t-43 29.5t-58 23.5t-71.5 10.5q-113 0 -181.5 -83t-68.5 -200 t77.5 -197.5t201.5 -80.5q60 0 113 24.5t77 49.5l23 24l55 -113q-4 -5 -11.5 -13t-34.5 -28.5t-58 -36t-81 -28.5t-104 -13q-184 0 -301.5 115.5t-117.5 284.5z" />
<glyph unicode="&#xaa;" horiz-adv-x="786" d="M104 872q0 102 100 168.5t292 92.5v28q0 34 -2.5 54t-12 41t-32 30.5t-58.5 9.5q-49 0 -101.5 -20t-79.5 -40l-28 -19l-32 98q4 3 12.5 8t36 18.5t57 23.5t75 18t91.5 8q105 0 146.5 -46t41.5 -157v-293q0 -36 18.5 -56.5t37.5 -22.5l18 -3l-37 -94q-121 5 -145 104 q-89 -110 -221 -110q-80 0 -128.5 43.5t-48.5 115.5zM229 879q0 -72 76 -72q30 0 57.5 10.5t54 34t40.5 39t39 45.5v111q-140 -26 -203.5 -66t-63.5 -102z" />
<glyph unicode="&#xab;" horiz-adv-x="1046" d="M55 510v8q29 23 78 75t326 353l98 -26l-313 -406q13 -19 313 -405l-98 -27q-78 83 -147 157t-104.5 112.5t-65 70.5t-43 46t-23.5 24t-21 18zM442 510v8q29 23 78 75t326 353l100 -26l-315 -406q13 -19 315 -405l-100 -27q-78 83 -147 157t-104.5 112.5t-65 70.5t-43 46 t-23.5 24t-21 18z" />
<glyph unicode="&#xac;" horiz-adv-x="1181" d="M115 670v123h936v-566h-131v443h-805z" />
<glyph unicode="&#xad;" horiz-adv-x="669" d="M117 438v142h434v-142h-434z" />
<glyph unicode="&#xae;" horiz-adv-x="890" d="M92 1087q0 146 104 250.5t250 104.5t250.5 -104.5t104.5 -250.5t-104.5 -250t-250.5 -104t-250 104t-104 250zM160 1087q0 -122 82.5 -209t199.5 -87q120 0 205.5 87t85.5 209t-85.5 208.5t-205.5 86.5q-117 0 -199.5 -86.5t-82.5 -208.5zM315 918v348h123 q144 0 144 -105q0 -70 -72 -100l104 -143h-90l-88 126h-41v-126h-80zM395 1098h49q22 0 38 12.5t16 42.5q0 57 -68 57h-35v-112z" />
<glyph unicode="&#xaf;" horiz-adv-x="1028" d="M291 1212v113h446v-113h-446z" />
<glyph unicode="&#xb0;" horiz-adv-x="692" d="M96 1145q0 102 73 174t177 72t177 -72t73 -174t-73 -174t-177 -72t-177 72t-73 174zM193 1145q0 -66 44 -111t109 -45q63 0 107.5 45t44.5 111t-44.5 112t-107.5 46q-64 0 -108.5 -46t-44.5 -112z" />
<glyph unicode="&#xb1;" horiz-adv-x="1064" d="M70 0v121h925v-121h-925zM74 647v121h389v375h131v-375h397v-121h-397v-411h-131v411h-389z" />
<glyph unicode="&#xb2;" horiz-adv-x="692" d="M57 819q27 28 76 77l74.5 74.5t64.5 67.5t60 68t47 63t39 65t22 60.5t9 63.5q0 72 -40.5 111.5t-99.5 39.5q-41 0 -83.5 -19.5t-64.5 -38.5l-22 -19l-63 71l11.5 11.5t33 26.5t54 33t72.5 26t89 12q113 0 174 -69.5t61 -166.5q0 -105 -81 -226t-248 -282h391v-98h-565z " />
<glyph unicode="&#xb3;" horiz-adv-x="655" d="M53 815l47 90q9 -5 24.5 -13t61 -21t88.5 -13q78 0 125 35t47 96q0 70 -63.5 108t-157.5 38h-39v96q53 5 102.5 27t85.5 64t36 93q0 96 -111 96q-40 0 -81 -13.5t-62 -27.5l-21 -14l-47 78q11 9 31 22t77.5 34.5t110.5 21.5q97 0 161 -51.5t64 -133.5q0 -122 -165 -213 q92 -20 147 -80.5t55 -138.5q0 -102 -87.5 -170.5t-213.5 -68.5q-58 0 -112 15t-78 29z" />
<glyph unicode="&#xb4;" horiz-adv-x="1017" d="M330 1083l205 342h155l-276 -391z" />
<glyph unicode="&#xb6;" horiz-adv-x="1343" d="M72 864q0 96 37.5 184.5t107.5 160t184.5 114.5t255.5 43h582v-111h-152v-1255h-118v1255h-154v-1296q0 -444 -352 -444l-31 123q133 0 193.5 74t60.5 241v414h-18q-149 0 -266 42t-187.5 112.5t-106.5 158t-36 184.5z" />
<glyph unicode="&#xb7;" horiz-adv-x="505" d="M143 520q0 44 32.5 76.5t78.5 32.5q44 0 76 -32.5t32 -76.5q0 -46 -32 -78t-76 -32q-46 0 -78.5 32t-32.5 78z" />
<glyph unicode="&#xb8;" horiz-adv-x="1028" d="M338 -422l41 96q7 -6 20 -15.5t49.5 -25.5t69.5 -16q45 0 77 21.5t32 50.5q0 24 -25.5 42.5t-56.5 29.5t-56.5 33.5t-25.5 53.5q0 16 6 35t17 44.5t14 33.5l16 39h96l-16 -33q-3 -6 -8 -18.5t-8.5 -20t-6 -17t-2.5 -15.5q0 -23 27 -42t59 -32.5t59 -44t27 -74.5 q0 -73 -63.5 -130.5t-155.5 -57.5q-47 0 -93.5 15.5t-69.5 31.5z" />
<glyph unicode="&#xb9;" horiz-adv-x="550" d="M70 770v90h166v647h-154v90h274v-737h158v-90h-444z" />
<glyph unicode="&#xba;" horiz-adv-x="835" d="M94 1047q0 62 22 123t62 110.5t103.5 80t138.5 30.5q142 0 229.5 -97.5t87.5 -228.5q0 -63 -20.5 -124t-59 -112.5t-102 -83.5t-141.5 -32q-95 0 -170 49.5t-112.5 124.5t-37.5 160zM215 1061q0 -105 52 -179.5t151 -74.5q89 0 143.5 67t54.5 173q0 65 -19.5 119.5 t-66 92t-114.5 37.5q-93 0 -147 -64t-54 -171z" />
<glyph unicode="&#xbb;" horiz-adv-x="1050" d="M104 109l316 405q-14 16 -316 406l101 26q266 -290 319.5 -347t83.5 -81v-8q-11 -9 -21.5 -18.5t-24 -23.5t-43 -46t-64.5 -70.5t-104 -112.5t-146 -157zM492 109l315 405q-13 16 -315 406l100 26q46 -50 121 -131q182 -198 219.5 -237.5t62.5 -59.5v-8 q-12 -10 -22.5 -20t-38 -39.5t-61 -66t-111.5 -120.5t-170 -182z" />
<glyph unicode="&#xbc;" horiz-adv-x="1646" d="M98 553v90h166v647h-153v90h274v-737h158v-90h-445zM332 0l811 1403l104 -37l-784 -1366h-131zM936 289l418 545h90v-512h127v-95h-127v-227h-117v227h-383zM1073 322h254v329z" />
<glyph unicode="&#xbd;" horiz-adv-x="1779" d="M96 553v90h166v647h-153v90h274v-737h158v-90h-445zM317 0l811 1403l105 -37l-784 -1366h-132zM1130 49q27 28 76 77l74.5 74.5t64.5 67.5t60 68t47 63t39 65t22 60.5t9 63.5q0 72 -40.5 111.5t-99.5 39.5q-41 0 -83.5 -19.5t-64.5 -38.5l-22 -19l-63 71l11.5 11.5 t33 26.5t54 33t72.5 26t89 12q113 0 174.5 -69.5t61.5 -166.5q0 -105 -81.5 -226t-248.5 -282h391v-98h-565z" />
<glyph unicode="&#xbe;" horiz-adv-x="1611" d="M86 598l47 90q9 -5 24.5 -13t61 -21t88.5 -13q78 0 125 35t47 96q0 70 -63.5 108t-157.5 38h-39v96q84 8 153.5 58t69.5 126q0 96 -110 96q-40 0 -81 -14t-62 -28l-21 -13l-47 78q11 9 31 22t77.5 34.5t110.5 21.5q97 0 161 -51.5t64 -133.5q0 -122 -166 -213 q92 -20 147.5 -80.5t55.5 -138.5q0 -102 -87.5 -170.5t-213.5 -68.5q-58 0 -112 14.5t-79 29.5zM295 0l811 1403l104 -37l-784 -1366h-131zM901 289l418 545h90v-512h127v-95h-127v-227h-117v227h-383zM1038 322h254v329z" />
<glyph unicode="&#xbf;" horiz-adv-x="694" d="M74 -104q0 42 24 86.5t60.5 82.5t79 88t79 101t60.5 125.5t24 157.5h103q6 -29 6 -76q0 -77 -29 -150t-70 -128t-82.5 -103t-70.5 -92.5t-29 -79.5q0 -41 39.5 -84.5t96 -75.5t112.5 -58.5t95 -40.5l40 -14l-28 -122q-11 3 -29 9t-71 26.5t-101.5 42.5t-107 57t-101 71 t-71.5 83t-29 94zM334 831q0 46 32 78.5t78 32.5t78.5 -32.5t32.5 -78.5t-32.5 -78t-78.5 -32t-78 32t-32 78z" />
<glyph unicode="&#xc0;" horiz-adv-x="1255" d="M35 0l528 1376h129l529 -1376h-144l-170 449h-565l-170 -449h-137zM354 1624l60 133l379 -194l-35 -86zM385 563h479l-239 631z" />
<glyph unicode="&#xc1;" horiz-adv-x="1255" d="M35 0l528 1376h129l529 -1376h-144l-170 449h-565l-170 -449h-137zM385 563h479l-239 631zM457 1563l377 194l61 -133l-403 -147z" />
<glyph unicode="&#xc2;" horiz-adv-x="1255" d="M35 0l528 1376h129l529 -1376h-144l-170 449h-565l-170 -449h-137zM307 1544l258 240h121l256 -240l-78 -74l-237 211l-242 -211zM385 563h479l-239 631z" />
<glyph unicode="&#xc3;" horiz-adv-x="1255" d="M35 0l528 1376h129l529 -1376h-144l-170 449h-565l-170 -449h-137zM268 1505q0 7 1 18t5.5 35.5t12 46.5t23 48t37 44.5t55 31t75.5 12.5q43 0 79 -14t60 -34.5t46 -40.5t48 -34t54 -14q27 0 47 13.5t29.5 30.5t14.5 39.5t6 33.5t1 20h117q0 -9 -1.5 -23t-7 -45t-20 -59 t-36.5 -56t-61 -44.5t-89 -16.5q-43 0 -79 14t-59.5 34.5t-45 40.5t-46.5 34t-53 14q-33 0 -55 -18t-29.5 -45.5t-9.5 -41.5t-2 -24h-117zM385 563h479l-239 631z" />
<glyph unicode="&#xc4;" horiz-adv-x="1255" d="M35 0l528 1376h129l529 -1376h-144l-170 449h-565l-170 -449h-137zM305 1624q0 35 28.5 63.5t65.5 28.5q34 0 63.5 -28.5t29.5 -63.5q0 -37 -29 -65.5t-64 -28.5q-37 0 -65.5 28t-28.5 66zM385 563h479l-239 631zM760 1624q0 35 29 63.5t63 28.5q37 0 65.5 -28.5 t28.5 -63.5q0 -38 -28.5 -66t-65.5 -28q-35 0 -63.5 28.5t-28.5 65.5z" />
<glyph unicode="&#xc5;" horiz-adv-x="1255" d="M35 0l528 1376h129l529 -1376h-144l-170 449h-565l-170 -449h-137zM385 563h479l-239 631zM436 1622q0 65 49.5 113.5t139.5 48.5t139 -48t49 -114q0 -67 -49 -115.5t-139 -48.5t-139.5 48.5t-49.5 115.5zM526 1620q0 -39 25.5 -67.5t73.5 -28.5q47 0 73.5 29t26.5 67 q0 41 -25.5 69.5t-74.5 28.5q-50 0 -74.5 -28.5t-24.5 -69.5z" />
<glyph unicode="&#xc6;" horiz-adv-x="1740" d="M2 0l760 1366h870v-113h-651v-497h516v-113h-516v-530h643v-113h-776v485h-434l-269 -485h-143zM475 598h373v672z" />
<glyph unicode="&#xc7;" horiz-adv-x="1384" d="M113 678q0 147 51.5 277t143.5 227t229 153t299 56q73 0 145.5 -12.5t124 -29.5t92.5 -34.5t62 -30.5l20 -12l-55 -125q-7 5 -19.5 14t-54.5 31t-86 39t-111 31t-133 14q-111 0 -204.5 -34.5t-158 -92.5t-110 -134t-67 -159.5t-21.5 -169.5q0 -118 41.5 -226t114.5 -190 t180.5 -131t232.5 -49q64 0 130 14.5t114 35t87 41.5t59 35l20 15l55 -102q-8 -6 -23 -16.5t-64.5 -37t-102 -47t-131.5 -37t-158 -16.5h-10l-4 -8q-3 -6 -8 -18.5t-8.5 -20t-6 -17t-2.5 -15.5q0 -23 27 -42t59 -32.5t59 -44t27 -74.5q0 -73 -63.5 -130.5t-155.5 -57.5 q-47 0 -93.5 15.5t-69.5 31.5l-23 16l41 96q7 -6 20 -15.5t49.5 -25.5t69.5 -16q45 0 76.5 21t31.5 51q0 24 -25.5 42.5t-56 29.5t-56 33.5t-25.5 53.5q0 16 6 35t17 44.5t14 33.5l8 23q-176 21 -312.5 115.5t-212 245.5t-75.5 333z" />
<glyph unicode="&#xc8;" horiz-adv-x="1103" d="M211 0v1366h784v-113h-649v-497h514v-113h-514v-530h641v-113h-776zM346 1624l60 133l378 -194l-34 -86z" />
<glyph unicode="&#xc9;" horiz-adv-x="1103" d="M211 0v1366h784v-113h-649v-497h514v-113h-514v-530h641v-113h-776zM449 1563l376 194l62 -133l-404 -147z" />
<glyph unicode="&#xca;" horiz-adv-x="1103" d="M211 0v1366h784v-113h-649v-497h514v-113h-514v-530h641v-113h-776zM299 1544l258 240h121l256 -240l-78 -74l-238 211l-241 -211z" />
<glyph unicode="&#xcb;" horiz-adv-x="1103" d="M211 0v1366h784v-113h-649v-497h514v-113h-514v-530h641v-113h-776zM297 1624q0 35 28.5 63.5t65.5 28.5q34 0 63 -28.5t29 -63.5q0 -37 -28.5 -65.5t-63.5 -28.5q-37 0 -65.5 28t-28.5 66zM752 1624q0 35 29 63.5t63 28.5q37 0 65.5 -28.5t28.5 -63.5q0 -38 -28.5 -66 t-65.5 -28q-35 0 -63.5 28.5t-28.5 65.5z" />
<glyph unicode="&#xcc;" horiz-adv-x="557" d="M8 1624l60 133l378 -194l-34 -86zM211 0v1366h135v-1366h-135z" />
<glyph unicode="&#xcd;" horiz-adv-x="557" d="M111 1563l376 194l62 -133l-404 -147zM211 0v1366h135v-1366h-135z" />
<glyph unicode="&#xce;" horiz-adv-x="557" d="M-39 1544l258 240h121l256 -240l-78 -74l-237 211l-242 -211zM211 0v1366h135v-1366h-135z" />
<glyph unicode="&#xcf;" horiz-adv-x="557" d="M14 1622q0 36 30 65t67 29q34 0 63 -29t29 -65t-29 -65t-63 -29q-37 0 -67 29t-30 65zM211 0v1366h135v-1366h-135zM358 1622q0 36 29.5 65t65.5 29q37 0 65.5 -28.5t28.5 -65.5t-28.5 -65.5t-65.5 -28.5q-36 0 -65.5 29t-29.5 65z" />
<glyph unicode="&#xd0;" horiz-adv-x="1488" d="M76 633v119h147v614h387q117 0 224 -21.5t206.5 -72t172.5 -125t117 -188t44 -254.5q0 -225 -107.5 -385.5t-296 -240t-438.5 -79.5h-309v633h-147zM356 113h156q154 0 275.5 29t203 80t134.5 124t76.5 156.5t23.5 181.5q0 265 -167 417t-476 152h-226v-501h365v-119 h-365v-520z" />
<glyph unicode="&#xd1;" horiz-adv-x="1529" d="M211 0v1366h133l844 -1167v1167h131v-1366h-133l-844 1149v-1149h-131zM408 1505q0 10 1.5 24t7 44t19.5 56.5t35.5 53t59 42.5t85.5 16q43 0 79 -14t60 -34.5t46 -40.5t48 -34t54 -14q27 0 47 13.5t29.5 30.5t14.5 39.5t6 33.5t1 20h117q0 -9 -1.5 -23t-7 -45t-20 -59 t-36.5 -56t-61 -44.5t-89 -16.5q-53 0 -95.5 21.5t-66 47t-55.5 47t-65 21.5t-55 -18t-30 -45.5t-10 -41.5t-2 -24h-116z" />
<glyph unicode="&#xd2;" horiz-adv-x="1624" d="M111 680q0 110 30.5 214t91 194t144.5 157.5t199 106.5t247 39q152 0 282 -53t219 -145t139 -217t50 -267q0 -144 -52.5 -277.5t-143.5 -234.5t-225 -161.5t-287 -60.5q-200 0 -360 97t-247 257.5t-87 350.5zM256 694q0 -87 23.5 -173t70.5 -163t112 -136.5t155.5 -94.5 t193.5 -35q127 0 234 52.5t175.5 138t107 192t38.5 217.5q0 112 -37.5 215.5t-106.5 185.5t-176 131.5t-235 49.5q-103 0 -193 -33t-155.5 -89.5t-112.5 -130.5t-70.5 -157.5t-23.5 -169.5zM541 1624l59 133l379 -194l-35 -86z" />
<glyph unicode="&#xd3;" horiz-adv-x="1624" d="M111 680q0 110 30.5 214t91 194t144.5 157.5t199 106.5t247 39q152 0 282 -53t219 -145t139 -217t50 -267q0 -144 -52.5 -277.5t-143.5 -234.5t-225 -161.5t-287 -60.5q-200 0 -360 97t-247 257.5t-87 350.5zM256 694q0 -87 23.5 -173t70.5 -163t112 -136.5t155.5 -94.5 t193.5 -35q127 0 234 52.5t175.5 138t107 192t38.5 217.5q0 112 -37.5 215.5t-106.5 185.5t-176 131.5t-235 49.5q-103 0 -193 -33t-155.5 -89.5t-112.5 -130.5t-70.5 -157.5t-23.5 -169.5zM643 1563l377 194l61 -133l-403 -147z" />
<glyph unicode="&#xd4;" horiz-adv-x="1624" d="M111 680q0 110 30.5 214t91 194t144.5 157.5t199 106.5t247 39q152 0 282 -53t219 -145t139 -217t50 -267q0 -144 -52.5 -277.5t-143.5 -234.5t-225 -161.5t-287 -60.5q-200 0 -360 97t-247 257.5t-87 350.5zM256 694q0 -87 23.5 -173t70.5 -163t112 -136.5t155.5 -94.5 t193.5 -35q127 0 234 52.5t175.5 138t107 192t38.5 217.5q0 112 -37.5 215.5t-106.5 185.5t-176 131.5t-235 49.5q-103 0 -193 -33t-155.5 -89.5t-112.5 -130.5t-70.5 -157.5t-23.5 -169.5zM494 1544l258 240h120l256 -240l-77 -74l-238 211l-242 -211z" />
<glyph unicode="&#xd5;" horiz-adv-x="1624" d="M111 680q0 110 30.5 214t91 194t144.5 157.5t199 106.5t247 39q152 0 282 -53t219 -145t139 -217t50 -267q0 -144 -52.5 -277.5t-143.5 -234.5t-225 -161.5t-287 -60.5q-200 0 -360 97t-247 257.5t-87 350.5zM256 694q0 -87 23.5 -173t70.5 -163t112 -136.5t155.5 -94.5 t193.5 -35q127 0 234 52.5t175.5 138t107 192t38.5 217.5q0 112 -37.5 215.5t-106.5 185.5t-176 131.5t-235 49.5q-103 0 -193 -33t-155.5 -89.5t-112.5 -130.5t-70.5 -157.5t-23.5 -169.5zM455 1505q0 7 1 18t5.5 35.5t12 46.5t23 48t37 44.5t55 31t75.5 12.5q43 0 79 -14 t60 -34.5t45.5 -40.5t47.5 -34t54 -14q27 0 47 13.5t29.5 30.5t15 39.5t6.5 33.5t1 20h116q0 -9 -1.5 -23t-7 -45t-20 -59t-36.5 -56t-61 -44.5t-89 -16.5q-53 0 -95.5 21.5t-66 47t-55.5 47t-65 21.5t-55 -18t-30 -45.5t-10 -41.5t-2 -24h-116z" />
<glyph unicode="&#xd6;" horiz-adv-x="1624" d="M111 680q0 110 30.5 214t91 194t144.5 157.5t199 106.5t247 39q152 0 282 -53t219 -145t139 -217t50 -267q0 -144 -52.5 -277.5t-143.5 -234.5t-225 -161.5t-287 -60.5q-200 0 -360 97t-247 257.5t-87 350.5zM256 694q0 -87 23.5 -173t70.5 -163t112 -136.5t155.5 -94.5 t193.5 -35q127 0 234 52.5t175.5 138t107 192t38.5 217.5q0 112 -37.5 215.5t-106.5 185.5t-176 131.5t-235 49.5q-103 0 -193 -33t-155.5 -89.5t-112.5 -130.5t-70.5 -157.5t-23.5 -169.5zM492 1624q0 35 28.5 63.5t65.5 28.5q34 0 63 -28.5t29 -63.5q0 -37 -28.5 -65.5 t-63.5 -28.5q-37 0 -65.5 28t-28.5 66zM946 1624q0 35 29 63.5t63 28.5q37 0 66 -28.5t29 -63.5q0 -38 -29 -66t-66 -28q-35 0 -63.5 28.5t-28.5 65.5z" />
<glyph unicode="&#xd7;" horiz-adv-x="1064" d="M86 137l363 373l-363 375l82 86l364 -375l365 375l82 -86l-365 -375l365 -373l-84 -86l-363 373l-362 -373z" />
<glyph unicode="&#xd8;" horiz-adv-x="1624" d="M111 680q0 110 30.5 214t91 194t144.5 157.5t199 106.5t247 39q212 0 381 -105l107 141h125l-152 -198q109 -94 169 -229t60 -291q0 -144 -52.5 -277.5t-143.5 -234.5t-225 -161.5t-287 -60.5q-218 0 -387 115l-115 -151h-127l162 213q-108 97 -167.5 234.5t-59.5 293.5z M256 694q0 -118 43 -233t123 -201l700 922q-136 92 -311 92q-103 0 -193 -33t-155.5 -89.5t-112.5 -131t-70.5 -158t-23.5 -168.5zM496 195q141 -103 315 -103q127 0 234 52.5t175.5 138t107 192t38.5 217.5q0 120 -42.5 231t-123.5 193z" />
<glyph unicode="&#xd9;" horiz-adv-x="1476" d="M193 485v881h133v-846q0 -215 113.5 -321.5t299.5 -106.5q89 0 162.5 24.5t130 73.5t88 130t31.5 186v860h133v-852q0 -129 -42 -232.5t-116.5 -170t-173.5 -101.5t-215 -35q-117 0 -213 28.5t-171.5 87.5t-117.5 159.5t-42 234.5zM467 1624l59 133l379 -194l-35 -86z " />
<glyph unicode="&#xda;" horiz-adv-x="1476" d="M193 485v881h133v-846q0 -215 113.5 -321.5t299.5 -106.5q89 0 162.5 24.5t130 73.5t88 130t31.5 186v860h133v-852q0 -129 -42 -232.5t-116.5 -170t-173.5 -101.5t-215 -35q-117 0 -213 28.5t-171.5 87.5t-117.5 159.5t-42 234.5zM569 1563l377 194l62 -133l-404 -147z " />
<glyph unicode="&#xdb;" horiz-adv-x="1476" d="M193 485v881h133v-846q0 -215 113.5 -321.5t299.5 -106.5q89 0 162.5 24.5t130 73.5t88 130t31.5 186v860h133v-852q0 -129 -42 -232.5t-116.5 -170t-173.5 -101.5t-215 -35q-117 0 -213 28.5t-171.5 87.5t-117.5 159.5t-42 234.5zM420 1544l258 240h121l256 -240 l-78 -74l-238 211l-241 -211z" />
<glyph unicode="&#xdc;" horiz-adv-x="1476" d="M193 485v881h133v-846q0 -215 113.5 -321.5t299.5 -106.5q89 0 162.5 24.5t130 73.5t88 130t31.5 186v860h133v-852q0 -129 -42 -232.5t-116.5 -170t-173.5 -101.5t-215 -35q-117 0 -213 28.5t-171.5 87.5t-117.5 159.5t-42 234.5zM418 1624q0 35 28.5 63.5t65.5 28.5 q34 0 63 -28.5t29 -63.5q0 -37 -28.5 -65.5t-63.5 -28.5q-37 0 -65.5 28t-28.5 66zM872 1624q0 35 29.5 63.5t63.5 28.5q37 0 65.5 -28.5t28.5 -63.5q0 -38 -28.5 -66t-65.5 -28q-35 0 -64 28.5t-29 65.5z" />
<glyph unicode="&#xdd;" horiz-adv-x="1153" d="M23 1366h159l398 -635l401 635h149l-485 -762v-604h-135v602zM424 1563l377 194l61 -133l-403 -147z" />
<glyph unicode="&#xde;" horiz-adv-x="1132" d="M211 0v1366h135v-324h266q100 0 178.5 -19t129 -51t83.5 -78t46.5 -96.5t13.5 -109.5q0 -185 -119.5 -287t-331.5 -102h-266v-299h-135zM346 412h240q175 0 253.5 66.5t78.5 195.5q0 256 -332 256h-240v-518z" />
<glyph unicode="&#xdf;" horiz-adv-x="1134" d="M61 809v63l146 58v80q0 216 98.5 336t278.5 120q82 0 147.5 -25.5t103.5 -67t58 -89t20 -96.5q0 -47 -21.5 -94t-52.5 -86t-62.5 -77.5t-53 -84.5t-21.5 -92q0 -43 20 -81.5t51.5 -69t70 -60.5t77.5 -61.5t70.5 -65.5t51.5 -80t20 -98q0 -119 -83.5 -191t-229.5 -72 q-77 0 -148 21t-103 42l-32 21l35 119q13 -10 36 -25.5t89.5 -41t128.5 -25.5q84 0 129 40t45 103q0 46 -26.5 88t-66.5 73t-86.5 68.5t-86.5 74t-66.5 90t-26.5 114.5q0 54 20.5 105t50.5 91t59.5 78t50 81.5t20.5 87.5q0 77 -59 121.5t-140 44.5q-106 0 -173.5 -80 t-67.5 -248v-1018h-125v809h-146z" />
<glyph unicode="&#xe0;" horiz-adv-x="944" d="M80 201q0 137 142 227t415 127v61q0 39 -1.5 61.5t-10 53.5t-24.5 48t-47.5 29.5t-76.5 12.5q-69 0 -141 -24.5t-109 -48.5l-37 -25l-45 111q6 4 17.5 11.5t49 26t77.5 33t101 26t122 11.5q133 0 191.5 -67t58.5 -222v-436q0 -35 10.5 -61t25.5 -38t30 -19t26 -8l10 -1 l-47 -104q-85 14 -124 51.5t-50 101.5q-11 -16 -27.5 -33.5t-56.5 -52t-100 -56.5t-127 -22q-114 0 -183 63t-69 163zM176 1425h154l207 -342l-84 -49zM219 209q0 -56 36 -83.5t95 -27.5q45 0 86.5 14.5t80 44.5t62 52.5t58.5 60.5v179q-217 -37 -317.5 -93.5t-100.5 -146.5 z" />
<glyph unicode="&#xe1;" horiz-adv-x="944" d="M80 201q0 137 142 227t415 127v61q0 39 -1.5 61.5t-10 53.5t-24.5 48t-47.5 29.5t-76.5 12.5q-69 0 -141 -24.5t-109 -48.5l-37 -25l-45 111q6 4 17.5 11.5t49 26t77.5 33t101 26t122 11.5q133 0 191.5 -67t58.5 -222v-436q0 -35 10.5 -61t25.5 -38t30 -19t26 -8l10 -1 l-47 -104q-85 14 -124 51.5t-50 101.5q-11 -16 -27.5 -33.5t-56.5 -52t-100 -56.5t-127 -22q-114 0 -183 63t-69 163zM219 209q0 -56 36 -83.5t95 -27.5q45 0 86.5 14.5t80 44.5t62 52.5t58.5 60.5v179q-217 -37 -317.5 -93.5t-100.5 -146.5zM381 1083l205 342h155 l-276 -391z" />
<glyph unicode="&#xe2;" horiz-adv-x="944" d="M80 201q0 137 142 227t415 127v61q0 39 -1.5 61.5t-10 53.5t-24.5 48t-47.5 29.5t-76.5 12.5q-69 0 -141 -24.5t-109 -48.5l-37 -25l-45 111q6 4 17.5 11.5t49 26t77.5 33t101 26t122 11.5q133 0 191.5 -67t58.5 -222v-436q0 -35 10.5 -61t25.5 -38t30 -19t26 -8l10 -1 l-47 -104q-85 14 -124 51.5t-50 101.5q-11 -16 -27.5 -33.5t-56.5 -52t-100 -56.5t-127 -22q-114 0 -183 63t-69 163zM184 1081l228 344h94l227 -344l-86 -49l-188 260l-189 -260zM219 209q0 -56 36 -83.5t95 -27.5q45 0 86.5 14.5t80 44.5t62 52.5t58.5 60.5v179 q-217 -37 -317.5 -93.5t-100.5 -146.5z" />
<glyph unicode="&#xe3;" horiz-adv-x="944" d="M80 201q0 137 142 227t415 127v61q0 39 -1.5 61.5t-10 53.5t-24.5 48t-47.5 29.5t-76.5 12.5q-69 0 -141 -24.5t-109 -48.5l-37 -25l-45 111q6 4 17.5 11.5t49 26t77.5 33t101 26t122 11.5q133 0 191.5 -67t58.5 -222v-436q0 -35 10.5 -61t25.5 -38t30 -19t26 -8l10 -1 l-47 -104q-85 14 -124 51.5t-50 101.5q-11 -16 -27.5 -33.5t-56.5 -52t-100 -56.5t-127 -22q-114 0 -183 63t-69 163zM174 1135q0 5 0.5 13.5t3.5 33t8.5 46.5t17.5 49t28.5 46.5t44 33t61.5 13.5q39 0 70.5 -16.5t51.5 -39.5t37 -46t36 -39.5t40 -16.5q32 0 50 36.5 t20 73.5l2 36h94q0 -5 -0.5 -14t-3.5 -34.5t-8.5 -48.5t-18 -51.5t-29.5 -49t-45 -34.5t-63 -14q-39 0 -70 16.5t-51 40t-37 47t-35.5 40t-39.5 16.5q-31 0 -48.5 -34t-19.5 -68l-2 -35h-94zM219 209q0 -56 36 -83.5t95 -27.5q45 0 86.5 14.5t80 44.5t62 52.5t58.5 60.5v179 q-217 -37 -317.5 -93.5t-100.5 -146.5z" />
<glyph unicode="&#xe4;" horiz-adv-x="944" d="M80 201q0 137 142 227t415 127v61q0 39 -1.5 61.5t-10 53.5t-24.5 48t-47.5 29.5t-76.5 12.5q-69 0 -141 -24.5t-109 -48.5l-37 -25l-45 111q6 4 17.5 11.5t49 26t77.5 33t101 26t122 11.5q133 0 191.5 -67t58.5 -222v-436q0 -35 10.5 -61t25.5 -38t30 -19t26 -8l10 -1 l-47 -104q-85 14 -124 51.5t-50 101.5q-11 -16 -27.5 -33.5t-56.5 -52t-100 -56.5t-127 -22q-114 0 -183 63t-69 163zM190 1262q0 36 30 65t67 29q34 0 63 -29t29 -65t-29 -65.5t-63 -29.5q-37 0 -67 29t-30 66zM219 209q0 -56 36 -83.5t95 -27.5q45 0 86.5 14.5t80 44.5 t62 52.5t58.5 60.5v179q-217 -37 -317.5 -93.5t-100.5 -146.5zM535 1262q0 36 29 65t65 29q37 0 65.5 -28.5t28.5 -65.5t-28.5 -66t-65.5 -29q-35 0 -64.5 29.5t-29.5 65.5z" />
<glyph unicode="&#xe5;" horiz-adv-x="944" d="M80 201q0 137 142 227t415 127v61q0 39 -1.5 61.5t-10 53.5t-24.5 48t-47.5 29.5t-76.5 12.5q-69 0 -141 -24.5t-109 -48.5l-37 -25l-45 111q6 4 17.5 11.5t49 26t77.5 33t101 26t122 11.5q133 0 191.5 -67t58.5 -222v-436q0 -35 10.5 -61t25.5 -38t30 -19t26 -8l10 -1 l-47 -104q-85 14 -124 51.5t-50 101.5q-11 -16 -27.5 -33.5t-56.5 -52t-100 -56.5t-127 -22q-114 0 -183 63t-69 163zM219 209q0 -56 36 -83.5t95 -27.5q45 0 86.5 14.5t80 44.5t62 52.5t58.5 60.5v179q-217 -37 -317.5 -93.5t-100.5 -146.5zM276 1266q0 68 46.5 113.5 t136.5 45.5t136 -45.5t46 -113.5q0 -69 -46.5 -118.5t-135.5 -49.5t-136 49.5t-47 118.5zM365 1264q0 -38 22.5 -64t71.5 -26q48 0 72 26.5t24 63.5t-23 62.5t-73 25.5q-51 0 -72.5 -25t-21.5 -63z" />
<glyph unicode="&#xe6;" horiz-adv-x="1538" d="M80 205q0 135 147 221.5t435 120.5v49q0 126 -32.5 175.5t-129.5 49.5q-75 0 -152.5 -24.5t-117.5 -48.5l-40 -25l-45 111q6 4 17.5 11.5t49.5 26t78 33t101 26t121 11.5q107 0 165.5 -37.5t82.5 -118.5q60 74 143.5 115t179.5 41q156 0 256 -105t99 -284l-84 -29 l-574 -73q6 -156 92 -256.5t228 -100.5q46 0 93 11.5t80 28t59.5 33.5t39.5 29l14 11l54 -94q-5 -6 -15.5 -15t-44.5 -33t-72 -42t-97.5 -33t-120.5 -15q-129 0 -228 60.5t-153 171.5q-18 -42 -46.5 -80t-70.5 -73.5t-102 -57t-130 -21.5q-121 0 -200.5 62t-79.5 168z M219 209q0 -53 40.5 -84t113.5 -31q125 0 200.5 91t75.5 253q-216 -33 -323 -88t-107 -141zM788 563l510 68q-1 8 -3.5 21.5t-17.5 47.5t-37.5 60t-67.5 47.5t-103 21.5q-113 0 -185.5 -73t-95.5 -193z" />
<glyph unicode="&#xe7;" horiz-adv-x="925" d="M98 446q0 95 29.5 183t85 158.5t143 112.5t195.5 42q54 0 104.5 -10.5t83.5 -25.5t58.5 -30t36.5 -26l12 -10l-66 -103q-4 3 -11.5 9t-31.5 21t-50 26t-65.5 20.5t-78.5 9.5q-144 0 -228 -106.5t-84 -255.5q0 -153 86.5 -260t231.5 -107q43 0 84.5 10.5t70.5 25t51 29.5 t33 25l11 11l47 -101q-5 -5 -14 -13t-39.5 -28.5t-64 -36t-87 -28.5t-109.5 -13h-10l-4 -10q-24 -60 -24 -71q0 -23 27 -42t59 -32.5t59 -44t27 -74.5q0 -73 -64 -130.5t-156 -57.5q-47 0 -93.5 15.5t-69.5 31.5l-23 16l41 96q7 -6 20 -15.5t49.5 -25.5t69.5 -16 q45 0 77 21.5t32 50.5q0 24 -25.5 42.5t-56.5 29.5t-56.5 33.5t-25.5 53.5q0 16 6 35t17 44.5t14 33.5l10 27q-151 33 -242.5 160.5t-91.5 299.5z" />
<glyph unicode="&#xe8;" horiz-adv-x="993" d="M100 434q0 221 122 364.5t313 143.5q159 0 258.5 -105t99.5 -290l-84 -25l-571 -73q8 -162 91.5 -258.5t227.5 -96.5q45 0 91.5 12t81 29t63 34.5t43.5 29.5l14 12l39 -107q-5 -5 -15 -14t-43.5 -31t-70 -39t-94 -31t-117.5 -14q-109 0 -196.5 38t-141.5 102.5t-82.5 146 t-28.5 172.5zM231 1425h154l207 -342l-84 -49zM244 561l510 66q-1 8 -4 21.5t-18 48.5t-37.5 61.5t-66.5 48.5t-100 22q-115 0 -189 -74.5t-95 -193.5z" />
<glyph unicode="&#xe9;" horiz-adv-x="993" d="M100 434q0 221 122 364.5t313 143.5q159 0 258.5 -105t99.5 -290l-84 -25l-571 -73q8 -162 91.5 -258.5t227.5 -96.5q45 0 91.5 12t81 29t63 34.5t43.5 29.5l14 12l39 -107q-5 -5 -15 -14t-43.5 -31t-70 -39t-94 -31t-117.5 -14q-109 0 -196.5 38t-141.5 102.5t-82.5 146 t-28.5 172.5zM244 561l510 66q-1 8 -4 21.5t-18 48.5t-37.5 61.5t-66.5 48.5t-100 22q-115 0 -189 -74.5t-95 -193.5zM436 1083l205 342h156l-277 -391z" />
<glyph unicode="&#xea;" horiz-adv-x="993" d="M100 434q0 221 122 364.5t313 143.5q159 0 258.5 -105t99.5 -290l-84 -25l-571 -73q8 -162 91.5 -258.5t227.5 -96.5q45 0 91.5 12t81 29t63 34.5t43.5 29.5l14 12l39 -107q-5 -5 -15 -14t-43.5 -31t-70 -39t-94 -31t-117.5 -14q-109 0 -196.5 38t-141.5 102.5t-82.5 146 t-28.5 172.5zM240 1081l227 344h94l227 -344l-86 -49l-188 260l-188 -260zM244 561l510 66q-1 8 -4 21.5t-18 48.5t-37.5 61.5t-66.5 48.5t-100 22q-115 0 -189 -74.5t-95 -193.5z" />
<glyph unicode="&#xeb;" horiz-adv-x="993" d="M100 434q0 221 122 364.5t313 143.5q159 0 258.5 -105t99.5 -290l-84 -25l-571 -73q8 -162 91.5 -258.5t227.5 -96.5q45 0 91.5 12t81 29t63 34.5t43.5 29.5l14 12l39 -107q-5 -5 -15 -14t-43.5 -31t-70 -39t-94 -31t-117.5 -14q-109 0 -196.5 38t-141.5 102.5t-82.5 146 t-28.5 172.5zM244 561l510 66q-1 8 -4 21.5t-18 48.5t-37.5 61.5t-66.5 48.5t-100 22q-115 0 -189 -74.5t-95 -193.5zM246 1262q0 37 29.5 65.5t66.5 28.5q34 0 63 -29t29 -65t-29 -65.5t-63 -29.5q-37 0 -66.5 29t-29.5 66zM590 1262q0 36 29 65t65 29q37 0 65.5 -28.5 t28.5 -65.5t-28.5 -66t-65.5 -29q-36 0 -65 29.5t-29 65.5z" />
<glyph unicode="&#xec;" horiz-adv-x="454" d="M-55 1425h153l207 -342l-84 -49zM166 0v918h125v-918h-125z" />
<glyph unicode="&#xed;" horiz-adv-x="454" d="M152 1083l204 342h156l-276 -391zM166 0v918h125v-918h-125z" />
<glyph unicode="&#xee;" horiz-adv-x="454" d="M-47 1081l227 344h94l228 -344l-86 -49l-189 260l-188 -260zM166 0v918h125v-918h-125z" />
<glyph unicode="&#xef;" horiz-adv-x="454" d="M-41 1262q0 37 29.5 65.5t66.5 28.5q34 0 63 -29t29 -65t-29 -65.5t-63 -29.5q-37 0 -66.5 29t-29.5 66zM166 0v918h125v-918h-125zM303 1262q0 36 29 65t65 29q37 0 66 -28.5t29 -65.5t-29 -66t-66 -29q-35 0 -64.5 29.5t-29.5 65.5z" />
<glyph unicode="&#xf0;" horiz-adv-x="1097" d="M98 451q0 128 57.5 240.5t160 181.5t225.5 69q177 0 264 -94q-74 212 -242 356l-252 -157l-57 92l219 137q-136 88 -291 133l31 104q214 -55 371 -167l282 176l54 -95l-246 -153q148 -134 225.5 -315.5t77.5 -387.5q0 -271 -122.5 -433.5t-334.5 -162.5 q-98 0 -179.5 41.5t-133.5 110t-80.5 152.5t-28.5 172zM236 465q0 -66 18.5 -130.5t54 -118.5t93 -87t128.5 -33q140 0 228 117t88 356q0 118 -67 185t-204 67q-151 0 -245 -100.5t-94 -255.5z" />
<glyph unicode="&#xf1;" d="M162 0v905l125 25v-187q30 27 45 41t62 49t85 54.5t94 37t109 17.5q105 0 170.5 -65t65.5 -205v-672h-125v649q0 180 -136 180q-47 0 -105.5 -25t-111.5 -63t-89.5 -69t-63.5 -58v-614h-125zM262 1135q0 5 0.5 13.5t3.5 33t8.5 46.5t17.5 49t28.5 46.5t44 33t61.5 13.5 q39 0 70.5 -16.5t51.5 -39.5t37 -46t36.5 -39.5t40.5 -16.5q20 0 35 15t21.5 36.5t10 43t3.5 36.5l1 15h94q0 -5 -0.5 -14t-3.5 -34.5t-8.5 -48.5t-18 -51.5t-29.5 -49t-45 -34.5t-63 -14q-39 0 -70 16.5t-51 40t-37 47t-35.5 40t-39.5 16.5q-31 0 -48.5 -34t-19.5 -68 l-2 -35h-94z" />
<glyph unicode="&#xf2;" d="M98 463q0 92 29.5 177t83.5 153t138.5 108.5t185.5 40.5q100 0 184 -39.5t139.5 -105.5t86 -151.5t30.5 -178.5q0 -92 -30 -179t-84 -157.5t-139 -113t-187 -42.5q-132 0 -233.5 71.5t-152.5 181.5t-51 235zM231 475q0 -73 19 -140.5t55.5 -122t96.5 -87.5t135 -33 q136 0 220.5 101t84.5 260q0 71 -18 136t-54 118.5t-96.5 85.5t-138.5 32q-138 0 -221 -96.5t-83 -253.5zM252 1425h154l206 -342l-84 -49z" />
<glyph unicode="&#xf3;" d="M98 463q0 92 29.5 177t83.5 153t138.5 108.5t185.5 40.5q100 0 184 -39.5t139.5 -105.5t86 -151.5t30.5 -178.5q0 -92 -30 -179t-84 -157.5t-139 -113t-187 -42.5q-132 0 -233.5 71.5t-152.5 181.5t-51 235zM231 475q0 -73 19 -140.5t55.5 -122t96.5 -87.5t135 -33 q136 0 220.5 101t84.5 260q0 71 -18 136t-54 118.5t-96.5 85.5t-138.5 32q-138 0 -221 -96.5t-83 -253.5zM459 1083l205 342h155l-276 -391z" />
<glyph unicode="&#xf4;" d="M98 463q0 92 29.5 177t83.5 153t138.5 108.5t185.5 40.5q100 0 184 -39.5t139.5 -105.5t86 -151.5t30.5 -178.5q0 -92 -30 -179t-84 -157.5t-139 -113t-187 -42.5q-132 0 -233.5 71.5t-152.5 181.5t-51 235zM231 475q0 -73 19 -140.5t55.5 -122t96.5 -87.5t135 -33 q136 0 220.5 101t84.5 260q0 71 -18 136t-54 118.5t-96.5 85.5t-138.5 32q-138 0 -221 -96.5t-83 -253.5zM260 1081l227 344h95l227 -344l-86 -49l-188 260l-189 -260z" />
<glyph unicode="&#xf5;" d="M98 463q0 92 29.5 177t83.5 153t138.5 108.5t185.5 40.5q100 0 184 -39.5t139.5 -105.5t86 -151.5t30.5 -178.5q0 -92 -30 -179t-84 -157.5t-139 -113t-187 -42.5q-132 0 -233.5 71.5t-152.5 181.5t-51 235zM231 475q0 -73 19 -140.5t55.5 -122t96.5 -87.5t135 -33 q136 0 220.5 101t84.5 260q0 71 -18 136t-54 118.5t-96.5 85.5t-138.5 32q-138 0 -221 -96.5t-83 -253.5zM250 1135q0 5 0.5 13.5t3.5 33t8.5 46.5t17.5 49t28.5 46.5t44 33t61.5 13.5q39 0 70.5 -16.5t51.5 -39.5t37 -46t36 -39.5t40 -16.5q32 0 50 36.5t20 73.5l2 36h94 q0 -5 -0.5 -14t-3.5 -34.5t-8.5 -48.5t-18 -51.5t-29.5 -49t-45 -34.5t-63 -14q-39 0 -70 16.5t-51 40t-37 47t-35.5 40t-39.5 16.5q-31 0 -48.5 -34t-19.5 -68l-2 -35h-94z" />
<glyph unicode="&#xf6;" d="M98 463q0 92 29.5 177t83.5 153t138.5 108.5t185.5 40.5q100 0 184 -39.5t139.5 -105.5t86 -151.5t30.5 -178.5q0 -92 -30 -179t-84 -157.5t-139 -113t-187 -42.5q-132 0 -233.5 71.5t-152.5 181.5t-51 235zM231 475q0 -73 19 -140.5t55.5 -122t96.5 -87.5t135 -33 q136 0 220.5 101t84.5 260q0 71 -18 136t-54 118.5t-96.5 85.5t-138.5 32q-138 0 -221 -96.5t-83 -253.5zM266 1262q0 37 29.5 65.5t66.5 28.5q34 0 63.5 -29t29.5 -65t-29.5 -65.5t-63.5 -29.5q-37 0 -66.5 29t-29.5 66zM610 1262q0 36 29.5 65t65.5 29q37 0 65.5 -28.5 t28.5 -65.5t-28.5 -66t-65.5 -29q-36 0 -65.5 29.5t-29.5 65.5z" />
<glyph unicode="&#xf7;" horiz-adv-x="1064" d="M74 451v120h917v-120h-917zM416 117q0 46 34.5 80t81.5 34t82 -34t35 -80q0 -49 -34.5 -83t-82.5 -34t-82 34t-34 83zM416 907q0 47 34.5 81t81.5 34t82 -34t35 -81q0 -49 -34.5 -82.5t-82.5 -33.5t-82 33.5t-34 82.5z" />
<glyph unicode="&#xf8;" d="M92 -61l131 176q-60 67 -92.5 156.5t-32.5 183.5q0 87 29.5 172t83.5 156t139.5 115t188.5 44q135 0 245 -76l84 113h121l-133 -178q119 -138 119 -324q0 -68 -18 -138.5t-55.5 -135.5t-89.5 -116t-125 -81.5t-157 -30.5q-132 0 -233 72l-82 -108h-123zM231 473 q0 -150 70 -254l410 549q-72 53 -176 53q-139 0 -221.5 -94.5t-82.5 -253.5zM371 145q68 -49 166 -49q140 0 222.5 98t82.5 257q0 142 -64 243z" />
<glyph unicode="&#xf9;" horiz-adv-x="1056" d="M154 250v668h125v-650q0 -103 39.5 -141.5t103.5 -38.5q146 0 340 188v642h125v-633q0 -50 10.5 -122t20.5 -119l10 -46l-125 -10q-23 100 -31 166q-26 -26 -56.5 -50.5t-79.5 -57t-111 -52t-124 -19.5q-120 0 -183.5 65.5t-63.5 209.5zM242 1425h153l207 -342l-84 -49z " />
<glyph unicode="&#xfa;" horiz-adv-x="1056" d="M154 250v668h125v-650q0 -103 39.5 -141.5t103.5 -38.5q146 0 340 188v642h125v-633q0 -50 10.5 -122t20.5 -119l10 -46l-125 -10q-23 100 -31 166q-26 -26 -56.5 -50.5t-79.5 -57t-111 -52t-124 -19.5q-120 0 -183.5 65.5t-63.5 209.5zM446 1083l205 342h156l-277 -391z " />
<glyph unicode="&#xfb;" horiz-adv-x="1056" d="M154 250v668h125v-650q0 -103 39.5 -141.5t103.5 -38.5q146 0 340 188v642h125v-633q0 -50 10.5 -122t20.5 -119l10 -46l-125 -10q-23 100 -31 166q-26 -26 -56.5 -50.5t-79.5 -57t-111 -52t-124 -19.5q-120 0 -183.5 65.5t-63.5 209.5zM250 1081l227 344h94l228 -344 l-86 -49l-189 260l-188 -260z" />
<glyph unicode="&#xfc;" horiz-adv-x="1056" d="M154 250v668h125v-650q0 -103 39.5 -141.5t103.5 -38.5q146 0 340 188v642h125v-633q0 -50 10.5 -122t20.5 -119l10 -46l-125 -10q-23 100 -31 166q-26 -26 -56.5 -50.5t-79.5 -57t-111 -52t-124 -19.5q-120 0 -183.5 65.5t-63.5 209.5zM256 1262q0 37 29.5 65.5 t66.5 28.5q34 0 63 -29t29 -65t-29 -65.5t-63 -29.5q-37 0 -66.5 29t-29.5 66zM600 1262q0 36 29 65t65 29q37 0 65.5 -28.5t28.5 -65.5t-28.5 -66t-65.5 -29q-36 0 -65 29.5t-29 65.5z" />
<glyph unicode="&#xfd;" horiz-adv-x="921" d="M41 918h137l289 -672l278 672h138l-422 -988q-30 -71 -53.5 -120t-59 -105.5t-70.5 -92t-83 -63t-103 -34.5l-41 110q94 19 158.5 93t122.5 206l69 158zM395 1083l205 342h156l-277 -391z" />
<glyph unicode="&#xfe;" horiz-adv-x="1067" d="M166 -473v1909l125 24v-665q37 63 110.5 105t173.5 42q178 0 285 -131t107 -330q0 -103 -33 -195t-93 -161t-150 -109.5t-197 -40.5q-137 0 -203 62v-486zM291 227q0 -131 184 -131q168 0 262 101.5t94 275.5q0 160 -74 253t-190 93q-54 0 -104.5 -20t-86 -51t-54.5 -53 t-31 -40v-428z" />
<glyph unicode="&#xff;" horiz-adv-x="921" d="M41 918h137l289 -672l278 672h138l-422 -988q-30 -71 -53.5 -120t-59 -105.5t-70.5 -92t-83 -63t-103 -34.5l-41 110q94 19 158.5 93t122.5 206l69 158zM205 1262q0 37 29.5 65.5t66.5 28.5q34 0 63 -29t29 -65t-29 -65.5t-63 -29.5q-37 0 -66.5 29t-29.5 66zM549 1262 q0 36 29 65t65 29q37 0 65.5 -28.5t28.5 -65.5t-28.5 -66t-65.5 -29q-35 0 -64.5 29.5t-29.5 65.5z" />
<glyph unicode="&#x152;" horiz-adv-x="2002" d="M111 680q0 140 46.5 265.5t136 226t234.5 160t328 59.5q115 0 256 -25h782v-113h-651v-497h516v-113h-516v-530h643v-113h-776q-156 -25 -270 -25q-170 0 -309.5 56.5t-230 153.5t-140 224t-49.5 271zM256 694q0 -83 19.5 -164.5t65 -161.5t112.5 -140.5t170 -98 t229 -37.5q125 0 258 19v1134q-116 29 -270 29q-116 0 -213.5 -33t-165 -89t-114.5 -131t-69 -157.5t-22 -169.5z" />
<glyph unicode="&#x153;" horiz-adv-x="1736" d="M98 453q0 93 28 179.5t81 156t139 111.5t193 42q126 0 224 -58t155 -155q57 100 148.5 156.5t207.5 56.5q162 0 262 -105t100 -290l-84 -25l-579 -76q7 -163 95.5 -257.5t227.5 -94.5q47 0 94 11.5t80 28t59.5 33.5t40.5 29l13 11l53 -94q-5 -6 -15 -15t-44.5 -33 t-72 -42t-97 -33t-121.5 -15q-129 0 -228.5 59.5t-154.5 158.5q-58 -98 -153.5 -158t-219.5 -60q-100 0 -183.5 41t-136.5 108.5t-82.5 152.5t-29.5 176zM231 465q0 -160 85.5 -266.5t226.5 -106.5q134 0 216.5 101t82.5 262q0 71 -18 135.5t-53 118t-95 85t-137 31.5 q-141 0 -224.5 -102.5t-83.5 -257.5zM979 559l516 68q-1 8 -3.5 21.5t-17.5 48.5t-37.5 61.5t-68 48.5t-104.5 22q-115 0 -189.5 -75t-95.5 -195z" />
<glyph unicode="&#x178;" horiz-adv-x="1153" d="M23 1366h159l398 -635l401 635h149l-485 -762v-604h-135v602zM272 1624q0 35 29 63.5t66 28.5q34 0 63 -28.5t29 -63.5q0 -37 -28.5 -65.5t-63.5 -28.5q-37 0 -66 28t-29 66zM727 1624q0 35 29 63.5t63 28.5q37 0 65.5 -28.5t28.5 -63.5q0 -38 -28.5 -66t-65.5 -28 q-35 0 -63.5 28.5t-28.5 65.5z" />
<glyph unicode="&#x2c6;" horiz-adv-x="1028" d="M240 1081l227 344h94l227 -344l-86 -49l-188 260l-188 -260z" />
<glyph unicode="&#x2dc;" horiz-adv-x="1028" d="M227 1135q0 5 0.5 13.5t3.5 33t8.5 46.5t17.5 49t28.5 46.5t44 33t61.5 13.5q39 0 70.5 -16.5t51.5 -39.5t37 -46t36.5 -39.5t40.5 -16.5q32 0 49.5 36.5t19.5 73.5l2 36h95q0 -5 -0.5 -14t-3.5 -34.5t-8.5 -48.5t-18 -51.5t-29.5 -49t-45 -34.5t-63 -14q-39 0 -70 16.5 t-51 40t-37 47t-36 40t-40 16.5q-20 0 -34 -14t-20.5 -34t-10 -40.5t-4.5 -34.5v-14h-95z" />
<glyph unicode="&#x2000;" horiz-adv-x="892" />
<glyph unicode="&#x2001;" horiz-adv-x="1784" />
<glyph unicode="&#x2002;" horiz-adv-x="892" />
<glyph unicode="&#x2003;" horiz-adv-x="1784" />
<glyph unicode="&#x2004;" horiz-adv-x="594" />
<glyph unicode="&#x2005;" horiz-adv-x="446" />
<glyph unicode="&#x2006;" horiz-adv-x="297" />
<glyph unicode="&#x2007;" horiz-adv-x="297" />
<glyph unicode="&#x2008;" horiz-adv-x="223" />
<glyph unicode="&#x2009;" horiz-adv-x="356" />
<glyph unicode="&#x200a;" horiz-adv-x="99" />
<glyph unicode="&#x2010;" horiz-adv-x="669" d="M117 438v142h434v-142h-434z" />
<glyph unicode="&#x2011;" horiz-adv-x="669" d="M117 438v142h434v-142h-434z" />
<glyph unicode="&#x2012;" horiz-adv-x="669" d="M117 438v142h434v-142h-434z" />
<glyph unicode="&#x2013;" horiz-adv-x="1075" d="M117 457v121h839v-121h-839z" />
<glyph unicode="&#x2014;" horiz-adv-x="1873" d="M117 457v121h1638v-121h-1638z" />
<glyph unicode="&#x2018;" horiz-adv-x="421" d="M106 1204q0 84 45.5 165t120.5 138l68 -65q-92 -74 -92 -170q0 -51 20 -98.5t74 -104.5l-137 -82q-99 82 -99 217z" />
<glyph unicode="&#x2019;" horiz-adv-x="417" d="M88 1425l137 82q99 -84 99 -215q0 -85 -45.5 -166.5t-120.5 -138.5l-68 66q92 74 92 170q0 106 -94 202z" />
<glyph unicode="&#x201a;" horiz-adv-x="485" d="M109 137l153 84q105 -89 105 -217q0 -83 -48.5 -165t-125.5 -140l-66 68q98 79 98 167q0 81 -116 203z" />
<glyph unicode="&#x201c;" horiz-adv-x="733" d="M106 1200q0 88 45 169t121 138l68 -65q-92 -75 -92 -176q0 -98 94 -197l-137 -82q-99 82 -99 213zM418 1200q0 88 45 169t121 138l65 -65q-90 -73 -90 -178q0 -96 92 -195l-135 -82q-98 81 -98 213z" />
<glyph unicode="&#x201d;" horiz-adv-x="727" d="M88 1425l137 82q99 -84 99 -215q0 -85 -45.5 -166.5t-120.5 -138.5l-68 66q92 74 92 170q0 106 -94 202zM399 1425l136 82q98 -81 98 -215q0 -85 -45.5 -166.5t-120.5 -138.5l-66 66q91 74 91 170q0 104 -93 202z" />
<glyph unicode="&#x201e;" horiz-adv-x="794" d="M109 137l153 84q105 -89 105 -217q0 -83 -48.5 -165t-125.5 -140l-66 68q98 79 98 167q0 81 -116 203zM418 137l153 84q107 -89 107 -217q0 -83 -48.5 -165t-125.5 -140l-68 68q101 78 101 167q0 81 -119 203z" />
<glyph unicode="&#x2022;" horiz-adv-x="757" d="M106 524q0 116 79 194.5t194 78.5t193.5 -78.5t78.5 -194.5t-78.5 -194t-193.5 -78q-116 0 -194.5 78.5t-78.5 193.5z" />
<glyph unicode="&#x2026;" horiz-adv-x="1570" d="M127 86q0 46 33.5 78.5t79.5 32.5q44 0 76 -32.5t32 -78.5t-32 -78.5t-76 -32.5q-46 0 -79.5 32.5t-33.5 78.5zM674 86q0 46 33 78.5t77 32.5q46 0 78.5 -32.5t32.5 -78.5t-32.5 -78.5t-78.5 -32.5q-44 0 -77 32.5t-33 78.5zM1221 86q0 46 32 78.5t78 32.5t78.5 -32.5 t32.5 -78.5t-32.5 -78.5t-78.5 -32.5t-78 32.5t-32 78.5z" />
<glyph unicode="&#x202f;" horiz-adv-x="356" />
<glyph unicode="&#x2039;" horiz-adv-x="659" d="M55 510v8q29 23 78 75t326 353l98 -26l-313 -406q13 -19 313 -405l-98 -27q-78 83 -147 157t-104.5 112.5t-65 70.5t-43 46t-23.5 24t-21 18z" />
<glyph unicode="&#x203a;" horiz-adv-x="661" d="M104 109l316 405q-14 16 -316 406l101 26q266 -290 319.5 -347t83.5 -81v-8q-11 -9 -21.5 -18.5t-24 -23.5t-43 -46t-64.5 -70.5t-104 -112.5t-146 -157z" />
<glyph unicode="&#x205f;" horiz-adv-x="446" />
<glyph unicode="&#x20ac;" horiz-adv-x="1138" d="M90 379v96h109q-4 27 -4 84q0 51 2 76h-103v98h119q43 190 174.5 305t331.5 115q83 0 160 -20t113 -40l36 -20l-35 -127q-5 4 -14 9.5t-39 21t-61.5 27t-79 21t-94.5 9.5q-145 0 -234.5 -83.5t-124.5 -217.5h586l-29 -98h-573q-2 -23 -2 -64q0 -49 6 -96h522l-29 -96 h-471q41 -130 134.5 -207.5t224.5 -77.5q69 0 136 19t99 38l33 19l49 -104q-5 -4 -14 -10t-40.5 -21.5t-65.5 -27.5t-88.5 -22t-110.5 -10q-186 0 -319 109.5t-179 294.5h-125z" />
<glyph unicode="&#x2122;" horiz-adv-x="1333" d="M78 1284v82h450v-82h-178v-463h-94v463h-178zM621 821l20 545h141l131 -379l131 379h138l20 -545h-90l-16 432l-154 -432h-63l-152 430l-12 -430h-94z" />
<glyph unicode="&#xe000;" horiz-adv-x="921" d="M0 0v922h922v-922h-922z" />
</font>
</defs>
</svg>
